<svg xmlns="http://www.w3.org/2000/svg" xmlns:xlink="http://www.w3.org/1999/xlink" width="20.395" height="20.396" viewBox="0 0 20.395 20.396">
  <defs>
    <linearGradient id="linear-gradient" x1="0.5" x2="0.5" y2="1" gradientUnits="objectBoundingBox">
      <stop offset="0" stop-color="#e80400"/>
      <stop offset="1" stop-color="#e46e00"/>
    </linearGradient>
  </defs>
  <g id="Group_165" data-name="Group 165" transform="translate(-196.922 -328.915)">
    <path id="Path_129" data-name="Path 129" d="M196.936,347.027c0-5.812.008-11.625-.014-17.437,0-.54.112-.678.668-.675,4.994.026,9.989.015,14.983.015a3.407,3.407,0,0,1,1.983,3.605c-.1,2.393-.027,4.794-.022,7.191,0,.285-.074.589.149.839.909,1.015,1.639,2.181,2.634,3.124v.351c-.812-.017-1.623-.025-2.434-.055-.339-.013-.462.119-.451.455.052,1.624,0,3.249.074,4.872h-4.568c.1-.6-.339-.481-.666-.481-2.913,0-5.827-.068-8.737.024A3.482,3.482,0,0,1,196.936,347.027Zm16.519-8.139c0-2.543.033-5.015-.019-7.486a1.548,1.548,0,0,0-1.62-1.432c-4.448-.018-8.9,0-13.342-.019-.42,0-.544.123-.543.543.013,5.179,0,10.358.017,15.537A1.621,1.621,0,0,0,199.7,347.8c3.218.022,6.437,0,9.656.017.45,0,.632-.121.6-.591-.036-.524-.005-1.053-.009-1.579,0-.391.094-.734.558-.721.41.012.5.33.5.687,0,.322,0,.644,0,.966,0,1.814,0,1.8,1.827,1.719.417-.018.556-.129.546-.55-.025-1.053-.008-2.106-.008-3.16,0-1.594,0-1.593,1.548-1.685.043,0,.083-.068.185-.157-.748-.924-1.522-1.831-2.236-2.784-.373-.5-.585-.363-.919.024-1.051,1.218-2.129,2.413-3.2,3.611-.233.26-.491.577-.88.258-.433-.355-.15-.665.112-.961q1.744-1.972,3.488-3.944C212.392,337.9,212.393,337.9,213.455,338.888Z" transform="translate(0 0)" fill="url(#linear-gradient)"/>
    <path id="Path_132" data-name="Path 132" d="M220.113,350.909c1.693,0,3.386,0,5.079,0,.4,0,.918-.071.922.519s-.509.533-.914.533q-5.166.005-10.333,0c-.4,0-.911.073-.916-.525s.506-.527.907-.528C216.61,350.906,218.362,350.909,220.113,350.909Z" transform="translate(-14.038 -18.129)" fill="url(#linear-gradient)"/>
    <path id="Path_133" data-name="Path 133" d="M219.648,368.627q-2.586,0-5.172,0c-.4,0-.844,0-.864-.5-.021-.532.437-.52.828-.52q5.26,0,10.52,0c.382,0,.847-.025.818.526-.028.523-.487.493-.87.493Q222.278,368.629,219.648,368.627Z" transform="translate(-13.757 -31.892)" fill="url(#linear-gradient)"/>
  </g>
</svg>
