<svg id="radar-tracking" xmlns="http://www.w3.org/2000/svg" xmlns:xlink="http://www.w3.org/1999/xlink" width="18.966" height="18.183" viewBox="0 0 18.966 18.183">
  <defs>
    <linearGradient id="linear-gradient" x1="0.5" x2="0.5" y2="1" gradientUnits="objectBoundingBox">
      <stop offset="0" stop-color="#e80400"/>
      <stop offset="1" stop-color="#e46e00"/>
    </linearGradient>
  </defs>
  <path id="Path_128" data-name="Path 128" d="M9.092,0a9.049,9.049,0,0,1,5.254,1.672l-.577.61a8.258,8.258,0,1,0,3.3,8.939,1.262,1.262,0,0,1,.276-2.3,8.212,8.212,0,0,0-1.655-4.787l.579-.611A9.052,9.052,0,0,1,18.18,8.959a1.261,1.261,0,0,1-.289,2.416A9.092,9.092,0,1,1,9.092,0Zm0,7.5a1.585,1.585,0,0,1,.756.191.315.315,0,0,1,.036-.042l5.208-5.478a.414.414,0,0,1,.6.571L10.484,8.221a.421.421,0,0,1-.039.036A1.59,1.59,0,1,1,9.092,7.5Zm.551,6.532a1.263,1.263,0,0,1,1.093.63,5.811,5.811,0,0,0,3.24-8.718l.593-.625A6.652,6.652,0,0,1,10.89,15.494a1.261,1.261,0,0,1-2.437.216A6.65,6.65,0,0,1,3.791,5.078,1.262,1.262,0,0,1,5.563,3.456a6.654,6.654,0,0,1,7.079.014l-.591.624A5.819,5.819,0,0,0,6.116,4.1,1.261,1.261,0,0,1,4.938,5.815a1.274,1.274,0,0,1-.553-.127,5.81,5.81,0,0,0,4.072,9.18,1.26,1.26,0,0,1,1.185-.834ZM9.092,4.875a4.2,4.2,0,0,1,1.824.414l-.56.591c-.019.019-.036.039-.052.059A3.376,3.376,0,1,0,12.213,7.8c.028-.025.054-.049.08-.077l.543-.573A4.213,4.213,0,1,1,9.092,4.875Z" fill="url(#linear-gradient)"/>
</svg>
