<svg xmlns="http://www.w3.org/2000/svg" xmlns:xlink="http://www.w3.org/1999/xlink" width="20.361" height="20.375" viewBox="0 0 20.361 20.375">
  <defs>
    <linearGradient id="linear-gradient" x1="0.5" x2="0.5" y2="1" gradientUnits="objectBoundingBox">
      <stop offset="0" stop-color="#e80400"/>
      <stop offset="1" stop-color="#e46e00"/>
    </linearGradient>
  </defs>
  <g id="reminders" transform="translate(-0.169 0.005)">
    <g id="Page-1_38_" transform="translate(0.169 -0.005)">
      <g id="_x30_39---Notes-and-Reminders" transform="translate(0)">
        <path id="Shape_144_" d="M11.035-.005H2.206A2.039,2.039,0,0,0,.169,2.032v16.3A2.039,2.039,0,0,0,2.206,20.37H13.752a2.043,2.043,0,0,0,.9-.211,1.676,1.676,0,0,0,.8.211,1.7,1.7,0,0,0,1.7-1.7h2.717a.648.648,0,0,0,.593-.359.725.725,0,0,0-.08-.762,8.09,8.09,0,0,1-1.532-4.9V12.22a3.4,3.4,0,0,0-2.037-3.112V8.824a1.347,1.347,0,0,0-1.019-1.31V4.749a.4.4,0,0,0-.1-.241L11.275.093a.312.312,0,0,0-.239-.1Zm4.415,19.7a1.019,1.019,0,0,1-1.019-1.019h2.037A1.019,1.019,0,0,1,15.45,19.69Zm2.717-7.471v.435a8.761,8.761,0,0,0,1.667,5.3.153.153,0,0,1,.018.034H15.436L14.128,18h-.042l-3.05.012a.061.061,0,0,1,.016-.052,7.867,7.867,0,0,0,.528-.819A.268.268,0,0,0,11.6,17.1a8.234,8.234,0,0,0,.6-1.338.23.23,0,0,0,.011-.031,9.433,9.433,0,0,0,.5-3.073V12.22a2.72,2.72,0,0,1,1.815-2.561.349.349,0,0,0,.042-.015,2.711,2.711,0,0,1,.859-.141h.014a2.722,2.722,0,0,1,2.717,2.717Zm-6.126,0H6.96a.34.34,0,0,1-.34-.34.332.332,0,0,1,.1-.242.325.325,0,0,1,.236-.1h5.148A3.445,3.445,0,0,0,12.041,12.22Zm-.955,4.414H6.96a.34.34,0,0,1-.34-.34.332.332,0,0,1,.1-.242.325.325,0,0,1,.236-.1h4.448A7.468,7.468,0,0,1,11.086,16.634Zm5.043-7.81v.068a3.441,3.441,0,0,0-.679-.068h-.014a3.435,3.435,0,0,0-.666.065V8.824a.679.679,0,1,1,1.358,0ZM11.375,1.155,14.63,4.409h-1.9a1.358,1.358,0,0,1-1.358-1.358v-1.9ZM.848,2.032A1.358,1.358,0,0,1,2.206.674H10.7V3.051a2.039,2.039,0,0,0,2.037,2.037H15.11V7.514a1.358,1.358,0,0,0-1.019,1.31V9.1a3.42,3.42,0,0,0-1.766,1.76H6.96a1.019,1.019,0,0,0,0,2.037h5.071a8.79,8.79,0,0,1-.374,2.377H6.96a1.019,1.019,0,1,0,0,2.037h3.711c-.054.079-.1.161-.162.238a.725.725,0,0,0-.08.762.648.648,0,0,0,.593.359h2.73a1.684,1.684,0,0,0,.315.979,1.366,1.366,0,0,1-.315.04H2.206A1.358,1.358,0,0,1,.848,18.332Z" transform="translate(-0.169 0.005)" fill="url(#linear-gradient)"/>
        <path id="Path_59_" d="M43.176,44.705a.34.34,0,0,0,.34-.34V43.347h1.019a.34.34,0,0,0,0-.679H43.176a.34.34,0,0,0-.34.34v1.358A.34.34,0,0,0,43.176,44.705Z" transform="translate(-41.138 -40.97)" fill-rule="evenodd" fill="url(#linear-gradient)"/>
        <path id="Shape_143_" d="M44.533,148.462a1.7,1.7,0,1,0-1.7-1.7,1.7,1.7,0,0,0,1.7,1.7Zm0-2.717a1.019,1.019,0,1,1-1.019,1.019A1.019,1.019,0,0,1,44.533,145.745Z" transform="translate(-41.137 -139.293)" fill="url(#linear-gradient)"/>
        <path id="Shape_142_" d="M44.533,259.395a1.7,1.7,0,1,0-1.7-1.7,1.7,1.7,0,0,0,1.7,1.7Zm0-2.717a1.019,1.019,0,1,1-1.019,1.019A1.019,1.019,0,0,1,44.533,256.678Z" transform="translate(-41.137 -245.812)" fill="url(#linear-gradient)"/>
        <path id="Shape_141_" d="M44.533,370.329a1.7,1.7,0,1,0-1.7-1.7,1.7,1.7,0,0,0,1.7,1.7Zm0-2.717a1.019,1.019,0,1,1-1.019,1.019A1.019,1.019,0,0,1,44.533,367.612Z" transform="translate(-41.137 -352.331)" fill="url(#linear-gradient)"/>
        <path id="Shape_140_" d="M146.254,164.17h6.112a1.019,1.019,0,1,0,0-2.037h-6.112a1.019,1.019,0,1,0,0,2.037Zm0-1.358h6.112a.34.34,0,1,1,0,.679h-6.112a.34.34,0,1,1,0-.679Z" transform="translate(-139.462 -155.681)" fill="url(#linear-gradient)"/>
        <path id="Path_58_" d="M332.969,258.038a.34.34,0,0,0,.679,0,1.358,1.358,0,0,1,1.358-1.358.34.34,0,0,0,0-.679A2.039,2.039,0,0,0,332.969,258.038Z" transform="translate(-319.725 -245.814)" fill-rule="evenodd" fill="url(#linear-gradient)"/>
      </g>
    </g>
  </g>
</svg>
