<svg xmlns="http://www.w3.org/2000/svg" width="23.858" height="20.969" viewBox="0 0 23.858 20.969">
  <g id="Group_123" data-name="Group 123" transform="translate(1846.837 -3314.048)">
    <g id="bubble-chat" transform="translate(-1846.837 3283.048)">
      <path id="Path_69" data-name="Path 69" d="M22.37,46.785a7.91,7.91,0,0,0-1.2-10.553,9.332,9.332,0,0,0-5.254-2.369c-.012-.015-.025-.03-.039-.045A9.445,9.445,0,0,0,9.086,31C4.15,31,0,34.678,0,39.388a7.873,7.873,0,0,0,1.487,4.6L.126,48.262a.7.7,0,0,0,.983.835l4.139-2.1a9.6,9.6,0,0,0,2.685.715,9.383,9.383,0,0,0,6.838,2.863,9.775,9.775,0,0,0,3.838-.783l4.139,2.1a.7.7,0,0,0,.983-.835ZM5.53,45.586a.7.7,0,0,0-.617.008l-2.948,1.5.963-3.023a.7.7,0,0,0-.115-.643A6.518,6.518,0,0,1,1.4,39.388c0-3.854,3.449-6.99,7.688-6.99a8.2,8.2,0,0,1,4.684,1.449C9.28,34.3,5.685,37.8,5.685,42.184a7.836,7.836,0,0,0,1.007,3.848,8.087,8.087,0,0,1-1.162-.445Zm13.413,2.8a.7.7,0,0,0-.617-.008,8.335,8.335,0,0,1-3.556.791c-4.239,0-7.688-3.136-7.688-6.99s3.449-6.99,7.688-6.99,7.688,3.136,7.688,6.99a6.517,6.517,0,0,1-1.415,4.041.7.7,0,0,0-.115.643l.963,3.023Z" transform="translate(0 0)" fill="#fff"/>
      <circle id="Ellipse_2" data-name="Ellipse 2" cx="0.699" cy="0.699" r="0.699" transform="translate(11.229 41.485)" fill="#fff"/>
      <circle id="Ellipse_3" data-name="Ellipse 3" cx="0.699" cy="0.699" r="0.699" transform="translate(14.025 41.485)" fill="#fff"/>
      <circle id="Ellipse_4" data-name="Ellipse 4" cx="0.699" cy="0.699" r="0.699" transform="translate(16.821 41.485)" fill="#fff"/>
    </g>
  </g>
</svg>
