<svg xmlns="http://www.w3.org/2000/svg" width="23.178" height="28.421" viewBox="0 0 23.178 28.421">
  <g id="Group_114" data-name="Group 114" transform="translate(1844.24 -2766)">
    <g id="Group_50" data-name="Group 50" transform="translate(-1844.24 2766)">
      <g id="Group_49" data-name="Group 49" transform="translate(0)">
        <path id="Path_42" data-name="Path 42" d="M58.419,140H54a.552.552,0,1,0,0,1.1h4.415a1.66,1.66,0,0,1,1.656,1.656V156a1.66,1.66,0,0,1-1.656,1.656H40.759A1.66,1.66,0,0,1,39.1,156V142.759a1.66,1.66,0,0,1,1.656-1.656h4.967a.552.552,0,1,0,0-1.1H40.759A2.767,2.767,0,0,0,38,142.759V156a2.767,2.767,0,0,0,2.759,2.759H58.419A2.767,2.767,0,0,0,61.178,156V142.759A2.767,2.767,0,0,0,58.419,140Z" transform="translate(-38 -130.343)" fill="#fff"/>
        <path id="Path_43" data-name="Path 43" d="M198.552,1.931a.553.553,0,0,0,.552-.552V.552a.552.552,0,1,0-1.1,0V1.38A.553.553,0,0,0,198.552,1.931Z" transform="translate(-186.963)" fill="#fff"/>
        <path id="Path_44" data-name="Path 44" d="M127.366,59.285a.533.533,0,0,0,0,.773l4.884,4.884a.533.533,0,0,0,.773,0l4.884-4.884a.546.546,0,0,0-.773-.773l-3.946,3.946V48.552a.552.552,0,1,0-1.1,0V63.231l-3.946-3.946A.533.533,0,0,0,127.366,59.285Z" transform="translate(-121.047 -44.689)" fill="#fff"/>
      </g>
    </g>
  </g>
</svg>
