<svg xmlns="http://www.w3.org/2000/svg" width="36.926" height="19.032" viewBox="0 0 36.926 19.032">
  <g id="Group_115" data-name="Group 115" transform="translate(1847.706 -2835)">
    <g id="Group_52" data-name="Group 52" transform="translate(-1826.734 2840.709)">
      <g id="Group_51" data-name="Group 51" transform="translate(0 0)">
        <path id="Path_45" data-name="Path 45" d="M292.113,203.211h-.786a.541.541,0,0,0-.541.541v2.879a.541.541,0,0,0,.541.541h.786c2.19,0,2.427-1.4,2.427-2S294.3,203.211,292.113,203.211Zm-.245,2.879v-1.8c.844,0,1.589.043,1.589.883C293.457,206.038,292.732,206.09,291.868,206.09Z" transform="translate(-290.785 -203.211)" fill="#fff"/>
      </g>
    </g>
    <g id="Group_54" data-name="Group 54" transform="translate(-1835.559 2841.868)">
      <g id="Group_53" data-name="Group 53" transform="translate(0 0)">
        <path id="Path_46" data-name="Path 46" d="M171.75,223.243l-1.109-3.584a.557.557,0,0,0-1.055,0l-1.133,3.572a.541.541,0,0,0,.322.669,3.892,3.892,0,0,0,2.643.014A.541.541,0,0,0,171.75,223.243Zm-2.094-.226.451-1.422.441,1.426A2.934,2.934,0,0,1,169.656,223.017Z" transform="translate(-168.428 -219.279)" fill="#fff"/>
      </g>
    </g>
    <g id="Group_56" data-name="Group 56" transform="translate(-1847.706 2835)">
      <g id="Group_55" data-name="Group 55" transform="translate(0 0)">
        <path id="Path_47" data-name="Path 47" d="M36.059,124.053H16.021a.541.541,0,1,0,0,1.083H35.537l-8.078,8.077a4.525,4.525,0,0,0-1.25-4.734,6.65,6.65,0,0,0-4.119-1.052H18.516a.541.541,0,0,0-.541.541v5.448L15.9,127.78a.541.541,0,0,0-.508-.355H12.3a.541.541,0,0,0-.507.351L9.6,133.613c-1.317-1.781-4.207-1.859-4.969-2.687a1.512,1.512,0,0,1,1.026-.194,5.247,5.247,0,0,1,2.4.651.542.542,0,0,0,.7-.217c1.342-2.332,1.383-2.29,1.294-2.587a.541.541,0,0,0-.274-.328c-2.765-1.4-7.024-1.594-8.706,1.015v-4.13H13.5a.541.541,0,0,0,0-1.083H.866a.867.867,0,0,0-.866.866v17.625a.541.541,0,0,0,.541.541H13.5a.541.541,0,1,0,0-1.083H1.083v-3.2a7.955,7.955,0,0,0,6.564.489.541.541,0,0,0,.491.313h3.244a.541.541,0,0,0,.514-.372l.381-1.159a6.8,6.8,0,0,0,3.061.01l.368,1.146a.541.541,0,0,0,.515.376h4.842L18.668,142H16.021a.541.541,0,0,0,0,1.083h2.736a.872.872,0,0,0,.612-.254l17.3-17.3A.867.867,0,0,0,36.059,124.053ZM1.68,135.746l-.6,1.186V133.2a6.381,6.381,0,0,0,3.474,2.09c.4.125,1.338.416,1.409.618-.006.332-.523.381-.853.389a4.431,4.431,0,0,1-2.673-.769A.541.541,0,0,0,1.68,135.746Zm20.374,2.87V136.18a7.928,7.928,0,0,0,2.766-.33Zm.611-3.519H21.513a.541.541,0,0,0-.541.541v2.887H16.616l-.406-1.263a.541.541,0,0,0-.68-.35A5.658,5.658,0,0,1,12.1,136.9a.541.541,0,0,0-.684.345l-.421,1.28H8.918L9,138.3a.541.541,0,0,0-.2-.633c-.761-.532-.755,1.016-3.7,1.046a7.639,7.639,0,0,1-3.324-.768l.611-1.212a5.218,5.218,0,0,0,2.741.64c1.4-.034,1.9-.764,1.913-1.452.038-2.2-5.509-1.209-5.447-4.75.039-2.6,3.577-3.654,7.176-2.194l-.7,1.219c-2.181-.94-4.522-.682-4.547.723-.01.7.736,1.27,2.35,1.792,1.635.518,3.006,1.059,3.224,2.438a.542.542,0,0,0,1.041.106l2.533-6.75h2.342l2.989,8.136a.542.542,0,0,0,1.049-.187v-7.95c4.122,0,7.511-.4,7.511,3.329C26.568,133.909,25.145,135.1,22.665,135.1Z" transform="translate(0 -124.053)" fill="#fff"/>
      </g>
    </g>
  </g>
</svg>
