<svg xmlns="http://www.w3.org/2000/svg" width="23.573" height="24.163" viewBox="0 0 23.573 24.163">
  <g id="Group_116" data-name="Group 116" transform="translate(1845.098 -2893)">
    <path id="filter_4_" data-name="filter (4)" d="M23.053,0H1.511a1.012,1.012,0,0,0-.9.55,1.026,1.026,0,0,0,.08,1.068L8.581,12.735l.008.011a2.255,2.255,0,0,1,.443,1.338v9.064a1.008,1.008,0,0,0,1.008,1.014,1.038,1.038,0,0,0,.4-.08l4.435-1.691a.96.96,0,0,0,.661-.948v-7.36a2.255,2.255,0,0,1,.442-1.338l.008-.011L23.876,1.617a1.025,1.025,0,0,0,.08-1.068,1.012,1.012,0,0,0-.9-.55ZM14.987,12.02a3.492,3.492,0,0,0-.681,2.065V21.3l-4.048,1.543V14.084a3.49,3.49,0,0,0-.681-2.065L1.916,1.226H22.649Zm0,0" transform="translate(-1845.594 2893)" fill="#fff"/>
  </g>
</svg>
