<svg xmlns="http://www.w3.org/2000/svg" width="29.184" height="29.469" viewBox="0 0 29.184 29.469">
  <g id="Group_118" data-name="Group 118" transform="translate(1846.664 -3023)">
    <path id="Path_51" data-name="Path 51" d="M98.879,91a2.59,2.59,0,1,0,2.59,2.59A2.593,2.593,0,0,0,98.879,91Zm0,3.453a.863.863,0,1,1,.863-.863A.864.864,0,0,1,98.879,94.453Z" transform="translate(-1937.553 2937.238)" fill="#fff"/>
    <path id="Path_52" data-name="Path 52" d="M18.458,9.645l-1.9-1.478a6.072,6.072,0,0,0,0-.679l1.9-1.478L16.037,1.817l-2.228.9a6.085,6.085,0,0,0-.589-.34L12.889,0H8.048L7.717,2.382a6.085,6.085,0,0,0-.589.34L4.9,1.817,2.479,6.01l1.9,1.478a6.071,6.071,0,0,0,0,.679l-1.9,1.478L4.9,13.838l2.228-.9a6.085,6.085,0,0,0,.589.34l.331,2.382h4.842l.331-2.382a6.085,6.085,0,0,0,.589-.34l2.228.9Zm-4.9,1.322a5.491,5.491,0,0,1-1.448.918l-.463.187-.258,1.857H9.551l-.258-1.857-.463-.187a5.494,5.494,0,0,1-1.448-.918l-1.739.706-.917-1.589L6.206,8.932a7.827,7.827,0,0,1-.111-1.1,7.828,7.828,0,0,1,.111-1.1L4.726,5.572l.917-1.589,1.739.706A5.491,5.491,0,0,1,8.83,3.771l.463-.187.258-1.857h1.835l.258,1.857.463.187a5.494,5.494,0,0,1,1.448.918l1.739-.706.917,1.589L14.731,6.724a7.827,7.827,0,0,1,.111,1.1,7.829,7.829,0,0,1-.111,1.1l1.479,1.152-.917,1.589Z" transform="translate(-1849.143 3023)" fill="#fff"/>
    <path id="Path_53" data-name="Path 53" d="M323.09,324.714a2.59,2.59,0,1,0,2.59,2.59A2.593,2.593,0,0,0,323.09,324.714Zm0,3.453a.863.863,0,1,1,.863-.863A.864.864,0,0,1,323.09,328.167Z" transform="translate(-2148.86 2716.976)" fill="#fff"/>
    <path id="Path_54" data-name="Path 54" d="M236.1,237.56q0-.185-.011-.372l1.971-1.534-2.494-4.319-2.314.939a6.315,6.315,0,0,0-.645-.373l-.343-2.473h-4.988l-.343,2.473a6.325,6.325,0,0,0-.645.373l-2.314-.939-2.494,4.319,1.971,1.534a6.286,6.286,0,0,0,0,.744l-1.971,1.534,2.494,4.319,2.314-.939a6.328,6.328,0,0,0,.645.373l.343,2.473h4.988l.343-2.473a6.318,6.318,0,0,0,.645-.373l2.314.939,2.494-4.319-1.971-1.534C236.1,237.808,236.1,237.683,236.1,237.56Zm-1.772-.642a5.743,5.743,0,0,1-.069,1.778l1.553,1.209-.99,1.715L233,240.88a5.687,5.687,0,0,1-1.5.95l-.463.187-.271,1.949H228.78l-.271-1.949-.463-.187a5.69,5.69,0,0,1-1.5-.95l-1.825.741-.99-1.715,1.553-1.209a5.74,5.74,0,0,1,0-2.272l-1.553-1.209.99-1.715,1.825.741a5.686,5.686,0,0,1,1.5-.95l.463-.187.271-1.949h1.981l.271,1.949.463.187a5.689,5.689,0,0,1,1.5.95l1.825-.741.99,1.715-1.553,1.209Z" transform="translate(-2055.54 2806.777)" fill="#fff"/>
    <path id="Path_55" data-name="Path 55" d="M47.77,332.479l.754.758H47.7a2.6,2.6,0,0,1-2.6-2.6V328H43.375v2.642a4.327,4.327,0,0,0,4.322,4.322h.827l-.754.758,1.225,1.217,2.821-2.839-2.821-2.839Z" transform="translate(-1887.685 2713.879)" fill="#fff"/>
    <path id="Path_56" data-name="Path 56" d="M330.025,33.138l-.754-.758h.827a2.6,2.6,0,0,1,2.6,2.6v2.642h1.727V34.975a4.327,4.327,0,0,0-4.322-4.322h-.827l.754-.758L328.8,28.677l-2.821,2.839,2.821,2.839Z" transform="translate(-2154.024 2995.974)" fill="#fff"/>
  </g>
</svg>
