<svg xmlns="http://www.w3.org/2000/svg" width="25.124" height="30.694" viewBox="0 0 25.124 30.694">
  <g id="Group_70" data-name="Group 70" transform="translate(-39.75 -272.75)">
    <g id="import" transform="translate(40 273)">
      <g id="Group_34" data-name="Group 34" transform="translate(0)">
        <g id="Group_33" data-name="Group 33">
          <path id="Path_47" data-name="Path 47" d="M59.693,140H55a.586.586,0,1,0,0,1.173h4.69a1.764,1.764,0,0,1,1.759,1.759V157a1.764,1.764,0,0,1-1.759,1.759H40.931A1.764,1.764,0,0,1,39.173,157V142.931a1.764,1.764,0,0,1,1.759-1.759h5.277a.586.586,0,1,0,0-1.173H40.931A2.94,2.94,0,0,0,38,142.931V157a2.94,2.94,0,0,0,2.931,2.931H59.693A2.94,2.94,0,0,0,62.624,157V142.931A2.94,2.94,0,0,0,59.693,140Z" transform="translate(-38 -129.74)" fill="#fde6e6" stroke="#fde6e6" stroke-width="0.5"/>
          <path id="Path_48" data-name="Path 48" d="M198.586,2.052a.588.588,0,0,0,.586-.586V.586a.586.586,0,0,0-1.173,0v.879A.588.588,0,0,0,198.586,2.052Z" transform="translate(-186.274)" fill="#fde6e6" stroke="#fde6e6" stroke-width="0.5"/>
          <path id="Path_49" data-name="Path 49" d="M127.376,59.99a.567.567,0,0,0,0,.821L132.565,66a.567.567,0,0,0,.821,0l5.189-5.189a.58.58,0,1,0-.821-.821l-4.192,4.192v-15.6a.586.586,0,0,0-1.173,0v15.6L128.2,59.99A.567.567,0,0,0,127.376,59.99Z" transform="translate(-120.663 -44.482)" fill="#fde6e6" stroke="#fde6e6" stroke-width="0.5"/>
        </g>
      </g>
    </g>
  </g>
</svg>
