<svg xmlns="http://www.w3.org/2000/svg" width="26.91" height="21.391" viewBox="0 0 26.91 21.391">
  <g id="Group_69" data-name="Group 69" transform="translate(-39 -215)">
    <g id="dashboard" transform="translate(39 162.501)">
      <g id="Group_3" data-name="Group 3" transform="translate(0 52.499)">
        <g id="Group_2" data-name="Group 2">
          <path id="Path_1" data-name="Path 1" d="M208.6,123.806a1.051,1.051,0,0,0-1.335-.125c-1.573,1.072-9.462,6.463-10.31,7.311a3.154,3.154,0,0,0,4.46,4.46c.848-.848,6.239-8.737,7.311-10.31A1.051,1.051,0,0,0,208.6,123.806Zm-8.672,10.159a1.051,1.051,0,0,1-1.487-1.486c.329-.326,2.569-1.923,5.325-3.839C201.847,131.4,200.249,133.635,199.924,133.965Z" transform="translate(-185.726 -119.767)" fill="#fde6e6"/>
          <path id="Path_2" data-name="Path 2" d="M4.847,70.843l-1.3.633a11.3,11.3,0,0,1-.709-9.552l1.487.713a1.051,1.051,0,1,0,.909-1.9l-1.468-.7A11.367,11.367,0,0,1,12.4,54.65v1.581a1.051,1.051,0,1,0,2.1,0V54.649a11.222,11.222,0,0,1,3.614.952,1.051,1.051,0,1,0,.865-1.916A13.444,13.444,0,0,0,2.28,73.423a1.051,1.051,0,0,0,1.335.361l2.155-1.051a1.051,1.051,0,1,0-.922-1.89Z" transform="translate(0 -52.499)" fill="#fde6e6"/>
          <path id="Path_3" data-name="Path 3" d="M395.221,192.113a1.051,1.051,0,1,0-1.916.865,11.315,11.315,0,0,1-.452,10.2l-1.355-.645a1.051,1.051,0,0,0-.9,1.9l2.207,1.051a1.051,1.051,0,0,0,1.326-.365,13.423,13.423,0,0,0,1.094-13Z" transform="translate(-369.497 -184.189)" fill="#fde6e6"/>
        </g>
      </g>
    </g>
  </g>
</svg>
