<svg xmlns="http://www.w3.org/2000/svg" width="25.503" height="30.184" viewBox="0 0 25.503 30.184">
  <g id="Group_72" data-name="Group 72" transform="translate(-36 -404)">
    <g id="Filter_funnel" data-name="Filter funnel" transform="translate(32.282 404)">
      <path id="Path_28" data-name="Path 28" d="M27.157,11.772H24.013V8.629A.629.629,0,0,0,23.385,8H19.612a.629.629,0,0,0-.629.629v3.143H5.781a1.894,1.894,0,1,0-.339,3.772L7.774,18.65c-5.457,3.9-1.7,12.612,4.923,11.228,0,2.842-.075,2.873.233,3.143s0,.233,6.809-1.125a.629.629,0,0,0,.5-.629V25.182L27.5,15.544a1.894,1.894,0,1,0-.339-3.772ZM20.241,9.257h2.515v2.515H20.241ZM6.41,23.717a5.03,5.03,0,1,1,5.03,5.03A5.03,5.03,0,0,1,6.41,23.717Zm12.7.88c-.176.239-.126-.094-.126,6.149l-5.03,1.006V29.476A6.287,6.287,0,1,0,8.868,17.984L7.039,15.544H25.9Zm8.047-10.311H5.781a.629.629,0,1,1,0-1.257H27.157a.629.629,0,1,1,0,1.257Z" transform="translate(0 -2.97)" fill="#fde6e6"/>
      <path id="Path_29" data-name="Path 29" d="M14.885,28.953a.629.629,0,0,1,.629.629.629.629,0,0,0,.629.629c1.044,0,.761-1.886-.629-2.4a.629.629,0,0,0-1.257,0,1.886,1.886,0,0,0,.629,3.659.629.629,0,1,1-.629.629.629.629,0,0,0-.629-.629c-1.044,0-.761,1.886.629,2.4a.629.629,0,1,0,1.257,0,1.886,1.886,0,0,0-.629-3.659.629.629,0,1,1,0-1.257Z" transform="translate(-3.446 -10.092)" fill="#fde6e6"/>
      <path id="Path_30" data-name="Path 30" d="M12.6,9.021c4.086,0,4.061.1,4.307-.3s.17-.327-1.886-4.4a.629.629,0,0,0-1.125,0c-2.05,4.1-2.112,3.986-1.886,4.4a.629.629,0,0,0,.591.3Zm1.886-2.993.868,1.735H13.617Z" transform="translate(-3.045 -1.476)" fill="#fde6e6"/>
      <path id="Path_31" data-name="Path 31" d="M22.515,5.03A2.515,2.515,0,1,0,20,2.515,2.515,2.515,0,0,0,22.515,5.03Zm0-3.772a1.257,1.257,0,1,1-1.257,1.257A1.257,1.257,0,0,1,22.515,1.257Z" transform="translate(-6.046)" fill="#fde6e6"/>
    </g>
  </g>
</svg>
