<svg xmlns="http://www.w3.org/2000/svg" width="24.203" height="24.203" viewBox="0 0 24.203 24.203">
  <g id="Group_75" data-name="Group 75" transform="translate(-37 -598)">
    <g id="files_1_" data-name="files (1)" transform="translate(37 598)">
      <g id="Group_32" data-name="Group 32" transform="translate(0 0)">
        <g id="Group_31" data-name="Group 31">
          <path id="Path_43" data-name="Path 43" d="M1.513,21.933V2.269a.756.756,0,0,1,.756-.756H13.614V4.538A1.513,1.513,0,0,0,15.127,6.05h3.025V8.319h1.513V5.294a.756.756,0,0,0-.219-.537L14.907.219A.756.756,0,0,0,14.37,0H2.269A2.269,2.269,0,0,0,0,2.269V21.933A2.269,2.269,0,0,0,2.269,24.2H7.563V22.69H2.269A.756.756,0,0,1,1.513,21.933Z" transform="translate(0 0)" fill="#fde6e6"/>
          <path id="Path_44" data-name="Path 44" d="M388.538,259.025h-1.513v1.513h1.513v1.513h-3.025v-4.538h4.538A1.513,1.513,0,0,0,388.538,256h-3.025A1.513,1.513,0,0,0,384,257.513v4.538a1.513,1.513,0,0,0,1.513,1.513h3.025a1.513,1.513,0,0,0,1.513-1.513v-1.513A1.513,1.513,0,0,0,388.538,259.025Z" transform="translate(-365.848 -243.899)" fill="#fde6e6"/>
          <path id="Path_45" data-name="Path 45" d="M243.025,256A3.025,3.025,0,0,0,240,259.025v1.513a3.025,3.025,0,1,0,6.051,0v-1.513A3.025,3.025,0,0,0,243.025,256Zm1.513,4.538a1.513,1.513,0,1,1-3.025,0v-1.513a1.513,1.513,0,1,1,3.025,0Z" transform="translate(-228.655 -243.899)" fill="#fde6e6"/>
          <path id="Path_46" data-name="Path 46" d="M129.513,256H128v6.807a.756.756,0,0,0,.756.756h3.782v-1.513h-3.025Z" transform="translate(-121.949 -243.899)" fill="#fde6e6"/>
        </g>
      </g>
    </g>
  </g>
</svg>
