<svg xmlns="http://www.w3.org/2000/svg" width="21.436" height="31.551" viewBox="0 0 21.436 31.551">
  <g id="Group_76" data-name="Group 76" transform="translate(-37.558 -531)">
    <g id="automation" transform="translate(37.558 531)">
      <path id="Path_41" data-name="Path 41" d="M101.895,26.651V23.664a.924.924,0,0,0-.924-.924H93.714V20.531h.631a.924.924,0,0,0,.9-.733l.377-1.785a8.3,8.3,0,0,0,2.424-1.4l1.736.566a.924.924,0,0,0,1.087-.417l1.575-2.728a.924.924,0,0,0-.183-1.15l-1.357-1.219a8.3,8.3,0,0,0,0-2.8l1.357-1.219a.924.924,0,0,0,.183-1.15l-1.575-2.727a.924.924,0,0,0-1.087-.417l-1.736.566a8.3,8.3,0,0,0-2.424-1.4L95.25.733a.924.924,0,0,0-.9-.733H91.2a.924.924,0,0,0-.9.733l-.377,1.784a8.3,8.3,0,0,0-2.425,1.4l-1.735-.566a.924.924,0,0,0-1.087.417L83.093,6.5a.924.924,0,0,0,.183,1.15l1.357,1.219a8.3,8.3,0,0,0,0,2.8l-1.357,1.219a.924.924,0,0,0-.183,1.15l1.575,2.728a.924.924,0,0,0,1.087.417l1.735-.566a8.3,8.3,0,0,0,2.425,1.4l.377,1.784a.924.924,0,0,0,.9.733h.669v2.208H84.61a.924.924,0,0,0-.924.924v2.987a2.538,2.538,0,1,0,1.849,0V24.588h6.332v2.063a2.538,2.538,0,1,0,1.849,0V24.588h6.332v2.063a2.538,2.538,0,1,0,1.849,0ZM90.969,16.416A6.426,6.426,0,0,1,88.346,14.9a.925.925,0,0,0-.925-.21l-1.527.5-.825-1.429,1.194-1.073a.925.925,0,0,0,.281-.905,6.449,6.449,0,0,1,0-3.032.924.924,0,0,0-.281-.905L85.069,6.772l.825-1.429,1.527.5a.924.924,0,0,0,.925-.21,6.425,6.425,0,0,1,2.623-1.515.924.924,0,0,0,.645-.7l.332-1.57H93.6l.332,1.57a.924.924,0,0,0,.645.7,6.429,6.429,0,0,1,2.622,1.516.924.924,0,0,0,.925.21l1.528-.5.825,1.429L99.279,7.844A.925.925,0,0,0,99,8.75a6.442,6.442,0,0,1,0,3.031.924.924,0,0,0,.281.906l1.194,1.073-.825,1.429-1.528-.5a.924.924,0,0,0-.925.21,6.429,6.429,0,0,1-2.622,1.516.924.924,0,0,0-.645.7l-.332,1.57h-1.65l-.332-1.57a.924.924,0,0,0-.645-.7ZM84.61,29.7a.689.689,0,1,1,.689-.689A.69.69,0,0,1,84.61,29.7Zm8.18,0a.689.689,0,1,1,.689-.689A.69.69,0,0,1,92.79,29.7Zm8.18,0a.689.689,0,1,1,.689-.689A.69.69,0,0,1,100.97,29.7Z" transform="translate(-82.072 0)" fill="#fde6e6"/>
      <path id="Path_42" data-name="Path 42" d="M196.057,102.761a4.191,4.191,0,1,0-4.191,4.192A4.2,4.2,0,0,0,196.057,102.761Zm-6.534,0a2.343,2.343,0,1,1,2.343,2.343A2.345,2.345,0,0,1,189.523,102.761Z" transform="translate(-181.166 -92.496)" fill="#fde6e6"/>
    </g>
  </g>
</svg>
