<svg xmlns="http://www.w3.org/2000/svg" width="27.324" height="27.323" viewBox="0 0 27.324 27.323">
  <g id="Group_82" data-name="Group 82" transform="translate(-44 -728.337)">
    <g id="vendor" transform="translate(44 728.328)">
      <path id="Path_85" data-name="Path 85" d="M27.324,20.875a.8.8,0,0,0-.8-.8h-.854V5.955a2.4,2.4,0,0,0,1.6-2.264V.809a.8.8,0,0,0-.8-.8H.854a.8.8,0,0,0-.8.8V3.691a2.4,2.4,0,0,0,1.6,2.264v14.12H.8a.8.8,0,0,0-.213,1.571v4.886a.8.8,0,0,0,1.6,0V21.676H25.3v4.856a.8.8,0,0,0,1.6,0V21.583A.8.8,0,0,0,27.324,20.875ZM25.669,3.691a.8.8,0,0,1-1.6,0V1.61h1.6Zm-3.2,0a.8.8,0,0,1-1.6,0h0V1.61h1.6Zm-4.8-2.081h1.6V3.691h0a.8.8,0,0,1-1.6,0Zm-1.6,2.081a.8.8,0,0,1-1.6,0h0V1.61h1.6Zm-4.8-2.081h1.6V3.691h0a.8.8,0,0,1-1.6,0ZM9.66,3.691a.8.8,0,0,1-1.6,0h0V1.61h1.6ZM4.857,1.61h1.6V3.691h0a.8.8,0,0,1-1.6,0Zm-3.2,0h1.6V3.691a.8.8,0,0,1-1.6,0Zm1.6,4.345a2.4,2.4,0,0,0,.8-.476,2.4,2.4,0,0,0,3.2,0,2.4,2.4,0,0,0,3.2,0,2.4,2.4,0,0,0,3.2,0,2.4,2.4,0,0,0,3.2,0,2.4,2.4,0,0,0,3.2,0,2.4,2.4,0,0,0,3.2,0,2.4,2.4,0,0,0,.8.476v14.12H19.746V17.033a3.687,3.687,0,0,0-3.253-3.656,3.629,3.629,0,1,0-5.661,0,3.687,3.687,0,0,0-3.253,3.656v3.042H3.256V5.955Zm8.378,5.154a2.028,2.028,0,1,1,2.028,2.028A2.03,2.03,0,0,1,11.634,11.109Zm.48,3.842h3.1v1.921h-3.1Zm-.8,3.522h4.7a.8.8,0,0,0,.8-.8V15.091a2.084,2.084,0,0,1,1.334,1.942v3.042H9.179V17.033a2.084,2.084,0,0,1,1.334-1.942v2.582A.8.8,0,0,0,11.314,18.474Z" fill="#fde6e6"/>
      <path id="Path_86" data-name="Path 86" d="M107.084,437.616a.8.8,0,0,1-.8-.8.8.8,0,0,0-.8-.8H92.408a.8.8,0,0,0-.8.8.8.8,0,0,1-.8.8.8.8,0,0,0-.8.8v.853a.8.8,0,0,0,1.6,0v-.19a2.413,2.413,0,0,0,1.464-1.464H104.82a2.413,2.413,0,0,0,1.464,1.464v.19a.8.8,0,0,0,1.6,0v-.853A.8.8,0,0,0,107.084,437.616Z" transform="translate(-85.204 -412.738)" fill="#fde6e6"/>
    </g>
  </g>
</svg>
