<svg xmlns="http://www.w3.org/2000/svg" xmlns:xlink="http://www.w3.org/1999/xlink" width="50" height="50" viewBox="0 0 50 50">
  <defs>
    <clipPath id="clip-_1">
      <rect width="50" height="50"/>
    </clipPath>
  </defs>
  <g id="_1" data-name="1" clip-path="url(#clip-_1)">
    <g id="Group_69" data-name="Group 69" transform="translate(-38.004 -208.995)">
      <g id="dashboard" transform="translate(39.004 214.995)">
        <g id="Group_3" data-name="Group 3" transform="translate(0 0)">
          <g id="Group_2" data-name="Group 2" transform="translate(0 0)">
            <path id="Path_1" data-name="Path 1" d="M218.374,124.045a1.868,1.868,0,0,0-2.373-.222c-2.8,1.906-16.82,11.489-18.327,13a5.606,5.606,0,1,0,7.929,7.929c1.507-1.508,11.09-15.532,13-18.328A1.868,1.868,0,0,0,218.374,124.045ZM202.958,142.1a1.869,1.869,0,0,1-2.643-2.642c.585-.58,4.567-3.418,9.466-6.824-3.411,4.906-6.252,8.879-6.83,9.466Z" transform="translate(-177.719 -116.856)" fill="#8a5b95"/>
            <path id="Path_2" data-name="Path 2" d="M8.613,85.112,6.3,86.237a20.087,20.087,0,0,1-1.26-16.98l2.643,1.267A1.872,1.872,0,1,0,9.3,67.147L6.692,65.9A20.206,20.206,0,0,1,22.04,56.327v2.81a1.868,1.868,0,1,0,3.733,0V56.325A19.949,19.949,0,0,1,32.2,58.017a1.868,1.868,0,0,0,1.538-3.406A23.9,23.9,0,0,0,4.05,89.7a1.868,1.868,0,0,0,2.373.642l3.831-1.868a1.869,1.869,0,1,0-1.639-3.36Z" transform="translate(-0.004 -52.494)" fill="#8a5b95"/>
            <path id="Path_3" data-name="Path 3" d="M399.284,192.594a1.869,1.869,0,0,0-3.406,1.538,20.114,20.114,0,0,1-.8,18.132l-2.409-1.147a1.869,1.869,0,1,0-1.6,3.378l3.923,1.868a1.868,1.868,0,0,0,2.357-.649,23.861,23.861,0,0,0,1.945-23.109Z" transform="translate(-353.563 -178.499)" fill="#8a5b95"/>
          </g>
        </g>
      </g>
    </g>
  </g>
</svg>
