<svg xmlns="http://www.w3.org/2000/svg" xmlns:xlink="http://www.w3.org/1999/xlink" width="50" height="50" viewBox="0 0 50 50">
  <defs>
    <clipPath id="clip-_2_6">
      <rect width="50" height="50"/>
    </clipPath>
  </defs>
  <g id="_2_6" data-name="2 – 6" clip-path="url(#clip-_2_6)">
    <g id="Group_80" data-name="Group 80" transform="translate(-40.25 -656.494)">
      <g id="team" transform="translate(42 667.494)">
        <path id="Path_77" data-name="Path 77" d="M15.615,44.189H2.664A.664.664,0,0,1,2,43.525V40.537a6.581,6.581,0,0,1,6.581-6.581h6.23A6.54,6.54,0,0,1,21.3,39.482a.664.664,0,0,1-1.311.21,5.218,5.218,0,0,0-5.171-4.409H8.581a5.252,5.252,0,0,0-5.246,5.246v2.333H15.621a.664.664,0,0,1,0,1.329Z" transform="translate(-2 -21.761)" fill="#8a5b95" stroke="#8a5b95" stroke-width="1"/>
        <path id="Path_78" data-name="Path 78" d="M13.985,25.877a5.144,5.144,0,1,1,5.144-5.144,5.144,5.144,0,0,1-5.144,5.144Zm0-8.96A3.815,3.815,0,1,0,17.8,20.733a3.815,3.815,0,0,0-3.815-3.815Z" transform="translate(-4.297 -15.589)" fill="#8a5b95" stroke="#8a5b95" stroke-width="1"/>
        <path id="Path_79" data-name="Path 79" d="M61.575,44.187H48.624a.664.664,0,0,1,0-1.329H60.912V40.535a5.252,5.252,0,0,0-5.246-5.246H49.434A5.218,5.218,0,0,0,44.264,39.7a.664.664,0,1,1-1.311-.21,6.54,6.54,0,0,1,6.487-5.528h6.23a6.581,6.581,0,0,1,6.581,6.581v2.988a.664.664,0,0,1-.664.664Z" transform="translate(-15.751 -21.759)" fill="#8a5b95" stroke="#8a5b95" stroke-width="1"/>
        <path id="Path_80" data-name="Path 80" d="M54.811,25.877a5.144,5.144,0,1,1,5.144-5.144,5.144,5.144,0,0,1-5.144,5.144Zm0-8.96a3.815,3.815,0,1,0,3.815,3.815,3.815,3.815,0,0,0-3.815-3.815Z" transform="translate(-18.009 -15.589)" fill="#8a5b95" stroke="#8a5b95" stroke-width="1"/>
        <path id="Path_81" data-name="Path 81" d="M41.694,52H21.34a.664.664,0,0,1-.664-.664v-2.7A7.338,7.338,0,0,1,28,41.3h7.024a7.338,7.338,0,0,1,7.33,7.33v2.7a.664.664,0,0,1-.664.671ZM22,50.67H41.03V48.633a6.009,6.009,0,0,0-6-6H28a6.009,6.009,0,0,0-6,6Z" transform="translate(-8.272 -24.224)" fill="#8a5b95" stroke="#8a5b95" stroke-width="1"/>
        <path id="Path_82" data-name="Path 82" d="M34.108,32.017A5.718,5.718,0,1,1,39.825,26.3,5.718,5.718,0,0,1,34.108,32.017Zm0-10.108A4.387,4.387,0,1,0,38.495,26.3a4.387,4.387,0,0,0-4.387-4.387Z" transform="translate(-10.864 -17.266)" fill="#8a5b95" stroke="#8a5b95" stroke-width="1"/>
      </g>
    </g>
  </g>
</svg>
