<svg xmlns="http://www.w3.org/2000/svg" xmlns:xlink="http://www.w3.org/1999/xlink" width="50" height="50" viewBox="0 0 50 50">
  <defs>
    <clipPath id="clip-_2_5">
      <rect width="50" height="50"/>
    </clipPath>
  </defs>
  <g id="_2_5" data-name="2 – 5" clip-path="url(#clip-_2_5)">
    <g id="Group_76" data-name="Group 76" transform="translate(-27.571 -524.74)">
      <g id="automation" transform="translate(37.558 531)">
        <path id="Path_41" data-name="Path 41" d="M105.618,31.656V28.108a1.1,1.1,0,0,0-1.1-1.1H95.9V24.387h.749a1.1,1.1,0,0,0,1.069-.871l.448-2.12a9.859,9.859,0,0,0,2.879-1.663l2.062.672a1.1,1.1,0,0,0,1.291-.5l1.871-3.24a1.1,1.1,0,0,0-.217-1.366l-1.612-1.448a9.859,9.859,0,0,0,0-3.326l1.612-1.448a1.1,1.1,0,0,0,.217-1.366L104.4,4.477a1.1,1.1,0,0,0-1.291-.5l-2.062.672a9.859,9.859,0,0,0-2.879-1.663L97.725.871A1.1,1.1,0,0,0,96.656,0H92.914a1.1,1.1,0,0,0-1.069.871L91.4,2.99a9.859,9.859,0,0,0-2.88,1.663L86.456,3.98a1.1,1.1,0,0,0-1.291.5l-1.88,3.245A1.1,1.1,0,0,0,83.5,9.087l1.612,1.448a9.859,9.859,0,0,0,0,3.326L83.5,15.308a1.1,1.1,0,0,0-.217,1.366l1.871,3.24a1.1,1.1,0,0,0,1.291.5l2.061-.672a9.859,9.859,0,0,0,2.88,1.663l.448,2.119a1.1,1.1,0,0,0,1.069.871H93.7v2.623H85.087a1.1,1.1,0,0,0-1.1,1.1v3.548a3.015,3.015,0,1,0,2.2,0V29.205h7.521v2.45a3.015,3.015,0,1,0,2.2,0v-2.45h7.521v2.45a3.015,3.015,0,1,0,2.2,0ZM92.64,19.5a7.633,7.633,0,0,1-3.116-1.8,1.1,1.1,0,0,0-1.1-.249l-1.814.594-.98-1.7,1.418-1.274A1.1,1.1,0,0,0,87.384,14a7.66,7.66,0,0,1,0-3.6,1.1,1.1,0,0,0-.334-1.075L85.632,8.044l.98-1.7,1.814.594a1.1,1.1,0,0,0,1.1-.249,7.632,7.632,0,0,1,3.116-1.8,1.1,1.1,0,0,0,.766-.831L93.8,2.2h1.965l.394,1.865a1.1,1.1,0,0,0,.766.831,7.636,7.636,0,0,1,3.114,1.8,1.1,1.1,0,0,0,1.1.249l1.815-.594.98,1.7L102.51,9.317a1.1,1.1,0,0,0-.331,1.076,7.652,7.652,0,0,1,0,3.6,1.1,1.1,0,0,0,.334,1.076l1.418,1.274-.98,1.7-1.815-.594a1.1,1.1,0,0,0-1.1.249,7.636,7.636,0,0,1-3.114,1.8,1.1,1.1,0,0,0-.766.831l-.394,1.865H93.8l-.394-1.865a1.1,1.1,0,0,0-.766-.831ZM85.087,35.277a.818.818,0,1,1,.818-.818A.818.818,0,0,1,85.087,35.277Zm9.716,0a.818.818,0,1,1,.818-.818A.818.818,0,0,1,94.8,35.277Zm9.716,0a.818.818,0,1,1,.818-.818.818.818,0,0,1-.818.818Z" transform="translate(-82.072)" fill="#8a5b95"/>
        <path id="Path_42" data-name="Path 42" d="M197.631,103.548a4.978,4.978,0,1,0-4.978,4.979,4.978,4.978,0,0,0,4.978-4.979Zm-7.761,0a2.783,2.783,0,1,1,2.783,2.783,2.783,2.783,0,0,1-2.783-2.783Z" transform="translate(-179.944 -91.355)" fill="#8a5b95"/>
      </g>
    </g>
  </g>
</svg>
