<svg xmlns="http://www.w3.org/2000/svg" xmlns:xlink="http://www.w3.org/1999/xlink" width="50" height="50" viewBox="0 0 50 50">
  <defs>
    <clipPath id="clip-_2_7">
      <rect width="50" height="50"/>
    </clipPath>
  </defs>
  <g id="_2_7" data-name="2 – 7" clip-path="url(#clip-_2_7)">
    <g id="Group_81" data-name="Group 81" transform="translate(-36 -776.332)">
      <g id="lock_1_" data-name="lock (1)" transform="translate(45 782.003)">
        <path id="Path_83" data-name="Path 83" d="M34.6,7.918a1.208,1.208,0,0,0-.671-1.081L20.512.13a1.208,1.208,0,0,0-1.081,0L6.014,6.836A1.208,1.208,0,0,0,5.35,7.918v3.558A32.71,32.71,0,0,0,17.691,37.167l1.529,1.208a1.206,1.206,0,0,0,1.51,0l1.534-1.208c.392-.32.785-.646,1.16-.973a8.252,8.252,0,1,0,9.154-13.362,32.7,32.7,0,0,0,2.03-11.356ZM35.128,30.4A5.842,5.842,0,1,1,29.3,24.56,5.842,5.842,0,0,1,35.128,30.4ZM29.3,22.144A8.263,8.263,0,0,0,21.035,30.4a8.173,8.173,0,0,0,.948,3.83q-.6.531-1.208,1.046l-.785.6-.773-.6a30.318,30.318,0,0,1-11.448-23.8V8.667L19.977,2.56,32.191,8.667v2.809A30.155,30.155,0,0,1,30.229,22.2a7.931,7.931,0,0,0-.925-.055Z" transform="translate(-5.35 -0.002)" fill="#8a5b95"/>
        <path id="Path_84" data-name="Path 84" d="M38.025,48.5a1.208,1.208,0,1,0-1.709,1.7l2.723,2.721a1.208,1.208,0,0,0,.858.357h0a1.208,1.208,0,0,0,.864-.381l5.134-5.436a1.208,1.208,0,0,0-1.756-1.632l-4.283,4.53Z" transform="translate(-17.457 -18.051)" fill="#8a5b95"/>
      </g>
    </g>
  </g>
</svg>
