<svg xmlns="http://www.w3.org/2000/svg" xmlns:xlink="http://www.w3.org/1999/xlink" width="50" height="50" viewBox="0 0 50 50">
  <defs>
    <clipPath id="clip-_2_3">
      <rect width="50" height="50"/>
    </clipPath>
  </defs>
  <g id="_2_3" data-name="2 – 3" clip-path="url(#clip-_2_3)">
    <g id="Group_73" data-name="Group 73" transform="translate(-28.96 -468.184)">
      <g id="machines" transform="translate(30.347 477.184)">
        <g id="Group_49" data-name="Group 49" transform="translate(0 2.57)">
          <g id="Group_48" data-name="Group 48" transform="translate(0 0)">
            <g id="Group_44" data-name="Group 44">
              <path id="Path_58" data-name="Path 58" d="M43.588,168.408h-3.95a1.9,1.9,0,0,1-1.9-1.9v-2.349a11.757,11.757,0,0,1-1.245-.517l-1.662,1.662a1.9,1.9,0,0,1-2.688,0l-2.8-2.8a1.9,1.9,0,0,1,0-2.688l1.662-1.662a11.771,11.771,0,0,1-.517-1.245H28.148a1.9,1.9,0,0,1-1.9-1.9v-3.95a1.9,1.9,0,0,1,1.9-1.9H30.5a11.779,11.779,0,0,1,.517-1.245l-1.662-1.662a1.9,1.9,0,0,1,0-2.688l2.793-2.793a1.9,1.9,0,0,1,2.688,0l1.662,1.662a11.678,11.678,0,0,1,1.245-.517v-2.349a1.9,1.9,0,0,1,1.9-1.9h3.95a1.9,1.9,0,0,1,1.9,1.9v2.349a11.753,11.753,0,0,1,1.245.517l1.662-1.662a1.9,1.9,0,0,1,2.688,0l2.793,2.793a1.9,1.9,0,0,1,0,2.688l-1.656,1.653a11.782,11.782,0,0,1,.517,1.245h2.349a1.9,1.9,0,0,1,1.9,1.9v3.95a1.9,1.9,0,0,1-1.9,1.9H52.733a11.737,11.737,0,0,1-.517,1.245l1.662,1.662a1.9,1.9,0,0,1,0,2.688L51.085,165.3a1.9,1.9,0,0,1-2.688,0l-1.662-1.662a11.762,11.762,0,0,1-1.245.517V166.5a1.9,1.9,0,0,1-1.9,1.9Zm-7.2-5.928a.522.522,0,0,1,.244.06,10.677,10.677,0,0,0,1.783.741.524.524,0,0,1,.368.5v2.727a.854.854,0,0,0,.852.852h3.95a.854.854,0,0,0,.852-.852v-2.727a.524.524,0,0,1,.368-.5,10.666,10.666,0,0,0,1.783-.741.524.524,0,0,1,.614.093l1.93,1.93a.876.876,0,0,0,1.205,0l2.793-2.793a.852.852,0,0,0,0-1.207l-1.93-1.93a.524.524,0,0,1-.093-.614,10.688,10.688,0,0,0,.749-1.782.524.524,0,0,1,.5-.368h2.727a.854.854,0,0,0,.852-.852v-3.95a.854.854,0,0,0-.852-.852H52.352a.524.524,0,0,1-.5-.368,10.7,10.7,0,0,0-.741-1.783.524.524,0,0,1,.093-.614l1.93-1.93a.852.852,0,0,0,0-1.205l-2.793-2.793a.876.876,0,0,0-1.207,0l-1.93,1.93a.524.524,0,0,1-.614.093,10.689,10.689,0,0,0-1.783-.741.524.524,0,0,1-.368-.5v-2.727a.854.854,0,0,0-.852-.852H39.638a.854.854,0,0,0-.852.852V142.3a.524.524,0,0,1-.368.5,10.725,10.725,0,0,0-1.783.741.524.524,0,0,1-.614-.093l-1.93-1.93a.876.876,0,0,0-1.207,0l-2.793,2.793a.852.852,0,0,0,0,1.205l1.93,1.93a.524.524,0,0,1,.093.614,10.7,10.7,0,0,0-.741,1.783.524.524,0,0,1-.5.368H28.148a.854.854,0,0,0-.852.852v3.95a.854.854,0,0,0,.852.852h2.727a.524.524,0,0,1,.5.368,10.7,10.7,0,0,0,.741,1.783.524.524,0,0,1-.093.614l-1.93,1.93a.852.852,0,0,0,0,1.205l2.793,2.793a.876.876,0,0,0,1.207,0l1.93-1.93a.523.523,0,0,1,.371-.153Z" transform="translate(-26.251 -137.686)" fill="#8a5b95"/>
            </g>
            <g id="Group_45" data-name="Group 45">
              <path id="Path_59" data-name="Path 59" d="M43.588,168.408h-3.95a1.9,1.9,0,0,1-1.9-1.9v-2.349a11.757,11.757,0,0,1-1.245-.517l-1.662,1.662a1.9,1.9,0,0,1-2.688,0l-2.8-2.8a1.9,1.9,0,0,1,0-2.688l1.662-1.662a11.771,11.771,0,0,1-.517-1.245H28.148a1.9,1.9,0,0,1-1.9-1.9v-3.95a1.9,1.9,0,0,1,1.9-1.9H30.5a11.779,11.779,0,0,1,.517-1.245l-1.662-1.662a1.9,1.9,0,0,1,0-2.688l2.793-2.793a1.9,1.9,0,0,1,2.688,0l1.662,1.662a11.678,11.678,0,0,1,1.245-.517v-2.349a1.9,1.9,0,0,1,1.9-1.9h3.95a1.9,1.9,0,0,1,1.9,1.9v2.349a11.753,11.753,0,0,1,1.245.517l1.662-1.662a1.9,1.9,0,0,1,2.688,0l2.793,2.793a1.9,1.9,0,0,1,0,2.688l-1.656,1.653a11.782,11.782,0,0,1,.517,1.245h2.349a1.9,1.9,0,0,1,1.9,1.9v3.95a1.9,1.9,0,0,1-1.9,1.9H52.733a11.737,11.737,0,0,1-.517,1.245l1.662,1.662a1.9,1.9,0,0,1,0,2.688L51.085,165.3a1.9,1.9,0,0,1-2.688,0l-1.662-1.662a11.762,11.762,0,0,1-1.245.517V166.5a1.9,1.9,0,0,1-1.9,1.9Zm-7.2-5.928a.522.522,0,0,1,.244.06,10.677,10.677,0,0,0,1.783.741.524.524,0,0,1,.368.5v2.727a.854.854,0,0,0,.852.852h3.95a.854.854,0,0,0,.852-.852v-2.727a.524.524,0,0,1,.368-.5,10.666,10.666,0,0,0,1.783-.741.524.524,0,0,1,.614.093l1.93,1.93a.876.876,0,0,0,1.205,0l2.793-2.793a.852.852,0,0,0,0-1.207l-1.93-1.93a.524.524,0,0,1-.093-.614,10.688,10.688,0,0,0,.749-1.782.524.524,0,0,1,.5-.368h2.727a.854.854,0,0,0,.852-.852v-3.95a.854.854,0,0,0-.852-.852H52.352a.524.524,0,0,1-.5-.368,10.7,10.7,0,0,0-.741-1.783.524.524,0,0,1,.093-.614l1.93-1.93a.852.852,0,0,0,0-1.205l-2.793-2.793a.876.876,0,0,0-1.207,0l-1.93,1.93a.524.524,0,0,1-.614.093,10.689,10.689,0,0,0-1.783-.741.524.524,0,0,1-.368-.5v-2.727a.854.854,0,0,0-.852-.852H39.638a.854.854,0,0,0-.852.852V142.3a.524.524,0,0,1-.368.5,10.725,10.725,0,0,0-1.783.741.524.524,0,0,1-.614-.093l-1.93-1.93a.876.876,0,0,0-1.207,0l-2.793,2.793a.852.852,0,0,0,0,1.205l1.93,1.93a.524.524,0,0,1,.093.614,10.7,10.7,0,0,0-.741,1.783.524.524,0,0,1-.5.368H28.148a.854.854,0,0,0-.852.852v3.95a.854.854,0,0,0,.852.852h2.727a.524.524,0,0,1,.5.368,10.7,10.7,0,0,0,.741,1.783.524.524,0,0,1-.093.614l-1.93,1.93a.852.852,0,0,0,0,1.205l2.793,2.793a.876.876,0,0,0,1.207,0l1.93-1.93a.523.523,0,0,1,.371-.153Z" transform="translate(-26.251 -137.686)" fill="#8a5b95" stroke="#8a5b95" stroke-width="0.5"/>
            </g>
            <g id="Group_46" data-name="Group 46" transform="translate(7.256 7.252)">
              <path id="Path_60" data-name="Path 60" d="M62.072,181.608a8.105,8.105,0,1,1,8.1-8.1,8.106,8.106,0,0,1-8.1,8.1Zm0-15.163a7.058,7.058,0,1,0,7.056,7.057A7.058,7.058,0,0,0,62.072,166.445Z" transform="translate(-53.965 -165.397)" fill="#8a5b95"/>
            </g>
            <g id="Group_47" data-name="Group 47" transform="translate(7.256 7.252)">
              <path id="Path_61" data-name="Path 61" d="M62.072,181.608a8.105,8.105,0,1,1,8.1-8.1,8.106,8.106,0,0,1-8.1,8.1Zm0-15.163a7.058,7.058,0,1,0,7.056,7.057A7.058,7.058,0,0,0,62.072,166.445Zm0,11.982A4.925,4.925,0,1,1,67,173.5a4.925,4.925,0,0,1-4.925,4.925Zm0-8.8a3.877,3.877,0,1,0,3.877,3.877,3.877,3.877,0,0,0-3.877-3.877Z" transform="translate(-53.965 -165.397)" fill="#8a5b95"/>
            </g>
          </g>
        </g>
        <g id="Group_62" data-name="Group 62" transform="translate(30.556 0)">
          <g id="Group_54" data-name="Group 54" transform="translate(2.15 1.639)">
            <path id="Path_66" data-name="Path 66" d="M157.378,145.857a6.263,6.263,0,0,1-6.255-6.255v-4.92a.524.524,0,0,1,.524-.524h11.464a.524.524,0,0,1,.524.524v4.92A6.263,6.263,0,0,1,157.378,145.857Zm-5.208-10.652v4.4a5.208,5.208,0,1,0,10.417,0v-4.4Z" transform="translate(-151.123 -134.158)" fill="#8a5b95"/>
          </g>
          <g id="Group_55" data-name="Group 55" transform="translate(2.151 12.251)">
            <path id="Path_67" data-name="Path 67" d="M163.111,186.373H151.647a.524.524,0,0,1-.524-.524v-4.92a6.256,6.256,0,0,1,12.512,0v4.92a.524.524,0,0,1-.524.524Zm-10.943-1.048h10.417v-4.4a5.208,5.208,0,0,0-10.417,0Z" transform="translate(-151.123 -174.674)" fill="#8a5b95"/>
          </g>
          <g id="Group_56" data-name="Group 56" transform="translate(4.086 6.961)">
            <path id="Path_68" data-name="Path 68" d="M162.834,158.952a4.331,4.331,0,0,1-4.316-3.881.524.524,0,0,1,.521-.584h7.587a.524.524,0,0,1,.521.584,4.332,4.332,0,0,1-4.313,3.881Zm-3.16-3.411a3.295,3.295,0,0,0,6.322,0Z" transform="translate(-158.515 -154.487)" fill="#8a5b95"/>
          </g>
          <g id="Group_57" data-name="Group 57" transform="translate(4.065 16.353)">
            <path id="Path_69" data-name="Path 69" d="M166.589,196.291h-7.636a.524.524,0,0,1-.524-.524v-1.094a4.342,4.342,0,1,1,8.684,0v1.094A.524.524,0,0,1,166.589,196.291Zm-7.112-1.048h6.588v-.571a3.294,3.294,0,1,0-6.589,0Z" transform="translate(-158.43 -190.331)" fill="#8a5b95"/>
          </g>
          <g id="Group_60" data-name="Group 60" transform="translate(0 0)">
            <path id="Path_72" data-name="Path 72" d="M157.683,132.229H145.308a2.162,2.162,0,1,1,0-4.323h12.376a2.162,2.162,0,1,1,0,4.323Zm-12.376-3.276a1.115,1.115,0,1,0,0,2.228h12.376a1.115,1.115,0,1,0,0-2.228Z" transform="translate(-143.089 -127.904)" fill="#8a5b95"/>
          </g>
          <g id="Group_61" data-name="Group 61" transform="translate(0 21.265)">
            <path id="Path_73" data-name="Path 73" d="M157.683,213.41H145.308a2.162,2.162,0,1,1,0-4.323h12.376a2.162,2.162,0,1,1,0,4.323Zm-12.375-3.282a1.115,1.115,0,1,0,0,2.228h12.376a1.115,1.115,0,1,0,0-2.228Z" transform="translate(-143.089 -209.085)" fill="#8a5b95"/>
          </g>
        </g>
      </g>
    </g>
  </g>
</svg>
