<svg xmlns="http://www.w3.org/2000/svg" xmlns:xlink="http://www.w3.org/1999/xlink" width="50" height="50" viewBox="0 0 50 50">
  <defs>
    <clipPath id="clip-_2_4">
      <rect width="50" height="50"/>
    </clipPath>
  </defs>
  <g id="_2_4" data-name="2 – 4" clip-path="url(#clip-_2_4)">
    <g id="Group_75" data-name="Group 75" transform="translate(-31 -592)">
      <g id="files_1_" data-name="files (1)" transform="translate(37 598)">
        <g id="Group_32" data-name="Group 32" transform="translate(0 0)">
          <g id="Group_31" data-name="Group 31">
            <path id="Path_43" data-name="Path 43" d="M2.356,34.15V3.533A1.177,1.177,0,0,1,3.533,2.356H21.2v4.71A2.356,2.356,0,0,0,23.553,9.42h4.71v3.533h2.356V8.243a1.177,1.177,0,0,0-.341-.836L23.21.341A1.177,1.177,0,0,0,22.374,0H3.533A3.533,3.533,0,0,0,0,3.533V34.15a3.533,3.533,0,0,0,3.533,3.53h8.243V35.328H3.533A1.177,1.177,0,0,1,2.356,34.15Z" transform="translate(0 0)" fill="#8a5b95"/>
            <path id="Path_44" data-name="Path 44" d="M391.066,260.71H388.71v2.356h2.356v2.356h-4.71v-7.066h7.066A2.356,2.356,0,0,0,391.066,256h-4.71A2.356,2.356,0,0,0,384,258.356v7.066a2.356,2.356,0,0,0,2.356,2.356h4.71a2.356,2.356,0,0,0,2.356-2.356v-2.356a2.356,2.356,0,0,0-2.356-2.356Z" transform="translate(-355.737 -237.159)" fill="#8a5b95"/>
            <path id="Path_45" data-name="Path 45" d="M244.71,256a4.71,4.71,0,0,0-4.71,4.71v2.356a4.711,4.711,0,0,0,9.421,0V260.71A4.71,4.71,0,0,0,244.71,256Zm2.356,7.066a2.356,2.356,0,1,1-4.71,0V260.71a2.356,2.356,0,1,1,4.71,0Z" transform="translate(-222.336 -237.159)" fill="#8a5b95"/>
            <path id="Path_46" data-name="Path 46" d="M130.356,256H128v10.6a1.177,1.177,0,0,0,1.177,1.177h5.888V265.42h-4.71Z" transform="translate(-118.579 -237.159)" fill="#8a5b95"/>
          </g>
        </g>
      </g>
    </g>
  </g>
</svg>
