<svg xmlns="http://www.w3.org/2000/svg" xmlns:xlink="http://www.w3.org/1999/xlink" width="50" height="50" viewBox="0 0 50 50">
  <defs>
    <clipPath id="clip-_2_8">
      <rect width="50" height="50"/>
    </clipPath>
  </defs>
  <g id="_2_8" data-name="2 – 8" clip-path="url(#clip-_2_8)">
    <g id="Group_82" data-name="Group 82" transform="translate(-38 -722.799)">
      <g id="vendor" transform="translate(44 728.337)">
        <path id="Path_85" data-name="Path 85" d="M38.926,29.735a1.14,1.14,0,0,0-1.14-1.14H36.57V8.48a3.419,3.419,0,0,0,2.279-3.225V1.149A1.14,1.14,0,0,0,37.71.009H1.216a1.14,1.14,0,0,0-1.14,1.14V5.254A3.419,3.419,0,0,0,2.356,8.48V28.6H1.14a1.14,1.14,0,0,0-.3,2.238v6.961a1.14,1.14,0,1,0,2.279,0V30.876H36.043v6.918a1.14,1.14,0,1,0,2.279,0v-7.05A1.14,1.14,0,0,0,38.926,29.735ZM36.568,5.254a1.14,1.14,0,0,1-2.279,0V2.29h2.279Zm-4.559,0a1.14,1.14,0,0,1-2.279,0h0V2.29H32.01ZM25.171,2.29h2.279V5.254h0a1.14,1.14,0,1,1-2.279,0ZM22.892,5.254a1.14,1.14,0,1,1-2.279,0h0V2.29h2.279ZM16.054,2.29h2.279V5.254h0a1.14,1.14,0,0,1-2.279,0ZM13.762,5.254a1.14,1.14,0,0,1-2.279,0h0V2.29h2.279ZM6.919,2.29H9.2V5.254h0a1.14,1.14,0,1,1-2.279,0Zm-4.559,0H4.64V5.254a1.14,1.14,0,1,1-2.279,0ZM4.64,8.48A3.419,3.419,0,0,0,5.78,7.8a3.419,3.419,0,0,0,4.559,0,3.419,3.419,0,0,0,4.559,0,3.419,3.419,0,0,0,4.559,0,3.419,3.419,0,0,0,4.559,0,3.419,3.419,0,0,0,4.559,0,3.419,3.419,0,0,0,4.559,0,3.419,3.419,0,0,0,1.14.678V28.6H28.13V24.262A5.253,5.253,0,0,0,23.5,19.053a5.17,5.17,0,1,0-8.065,0A5.253,5.253,0,0,0,10.8,24.262V28.6H4.638V8.48Zm11.935,7.343a2.889,2.889,0,1,1,2.889,2.889,2.889,2.889,0,0,1-2.889-2.889Zm.684,5.473h4.416v2.737H17.259Zm-1.14,5.018h6.7a1.14,1.14,0,0,0,1.14-1.14V21.5a2.969,2.969,0,0,1,1.9,2.767V28.6H13.076V24.262a2.969,2.969,0,0,1,1.9-2.767v3.678a1.14,1.14,0,0,0,1.141,1.141Z" transform="translate(0 -0.009)" fill="#8a5b95"/>
        <path id="Path_86" data-name="Path 86" d="M114.335,438.3a1.14,1.14,0,0,1-1.14-1.14,1.14,1.14,0,0,0-1.14-1.14H93.427a1.14,1.14,0,0,0-1.14,1.14,1.14,1.14,0,0,1-1.14,1.14,1.14,1.14,0,0,0-1.14,1.14v1.215a1.14,1.14,0,1,0,2.279,0v-.271a3.437,3.437,0,0,0,2.086-2.086h16.736a3.438,3.438,0,0,0,2.086,2.086v.271a1.14,1.14,0,0,0,2.279,0v-1.215a1.14,1.14,0,0,0-1.14-1.14Z" transform="translate(-83.165 -402.866)" fill="#8a5b95"/>
      </g>
    </g>
  </g>
</svg>
