<svg xmlns="http://www.w3.org/2000/svg" xmlns:xlink="http://www.w3.org/1999/xlink" width="50" height="50" viewBox="0 0 50 50">
  <defs>
    <clipPath id="clip-_2_2">
      <rect width="50" height="50"/>
    </clipPath>
  </defs>
  <g id="_2_2" data-name="2 – 2" clip-path="url(#clip-_2_2)">
    <g id="Group_72" data-name="Group 72" transform="translate(-26.999 -398.005)">
      <g id="Filter_funnel" data-name="Filter funnel" transform="translate(35.999 404)">
        <path id="Path_28" data-name="Path 28" d="M33.235,12.75H29.275V8.792A.792.792,0,0,0,28.485,8H23.733a.792.792,0,0,0-.792.792V12.75H6.316A2.385,2.385,0,1,0,5.889,17.5l2.937,3.911c-6.872,4.911-2.141,15.882,6.2,14.139,0,3.579-.094,3.618.293,3.958s0,.293,8.574-1.417a.792.792,0,0,0,.63-.792V29.637L33.667,17.5a2.385,2.385,0,1,0-.427-4.751ZM24.525,9.583h3.167V12.75H24.525ZM7.108,27.792a6.334,6.334,0,1,1,6.334,6.334,6.334,6.334,0,0,1-6.334-6.334ZM23.1,28.9c-.222.3-.159-.118-.159,7.743l-6.334,1.267V35.044a7.917,7.917,0,1,0-6.4-14.472L7.9,17.5H31.652ZM33.235,15.916H6.316a.792.792,0,1,1,0-1.583H33.235a.792.792,0,1,1,0,1.583Z" transform="translate(-3.717 -1.666)" fill="#8a5b95"/>
        <path id="Path_29" data-name="Path 29" d="M15.374,29.406a.792.792,0,0,1,.792.792.792.792,0,0,0,.792.792c1.315,0,.958-2.375-.792-3.022a.792.792,0,0,0-1.583,0,2.375,2.375,0,0,0,.792,4.608.792.792,0,1,1-.792.792.792.792,0,0,0-.792-.792c-1.315,0-.958,2.375.792,3.022a.792.792,0,1,0,1.583,0,2.375,2.375,0,0,0-.792-4.608.792.792,0,1,1,0-1.583Z" transform="translate(-5.651 -5.654)" fill="#8a5b95"/>
        <path id="Path_30" data-name="Path 30" d="M12.776,10.33c5.145,0,5.114.126,5.424-.378s.214-.412-2.375-5.541a.792.792,0,0,0-1.417,0c-2.582,5.163-2.66,5.02-2.375,5.541a.792.792,0,0,0,.744.378Zm2.375-3.769,1.093,2.185H14.057Z" transform="translate(-5.425 -0.828)" fill="#8a5b95"/>
        <path id="Path_31" data-name="Path 31" d="M23.167,6.334A3.167,3.167,0,1,0,20,3.167,3.167,3.167,0,0,0,23.167,6.334Zm0-4.75a1.583,1.583,0,1,1-1.583,1.583,1.583,1.583,0,0,1,1.583-1.583Z" transform="translate(-7.109)" fill="#8a5b95"/>
      </g>
    </g>
  </g>
</svg>
