<svg xmlns="http://www.w3.org/2000/svg" xmlns:xlink="http://www.w3.org/1999/xlink" width="50" height="50" viewBox="0 0 50 50">
  <defs>
    <clipPath id="clip-_2">
      <rect width="50" height="50"/>
    </clipPath>
  </defs>
  <g id="_2" data-name="2" clip-path="url(#clip-_2)">
    <g id="Group_70" data-name="Group 70" transform="translate(-31 -267.149)">
      <g id="import" transform="translate(40 272.999)">
        <g id="Group_34" data-name="Group 34" transform="translate(0 0)">
          <g id="Group_33" data-name="Group 33">
            <path id="Path_47" data-name="Path 47" d="M65.518,140H59.565a.744.744,0,1,0,0,1.488h5.949a2.238,2.238,0,0,1,2.231,2.231v17.846a2.238,2.238,0,0,1-2.231,2.231h-23.8a2.238,2.238,0,0,1-2.23-2.231V143.718a2.238,2.238,0,0,1,2.231-2.231h6.694a.744.744,0,1,0,0-1.488h-6.7A3.729,3.729,0,0,0,38,143.718v17.847a3.729,3.729,0,0,0,3.718,3.718h23.8a3.729,3.729,0,0,0,3.718-3.718V143.718A3.729,3.729,0,0,0,65.518,140Z" transform="translate(-38 -126.985)" fill="#8a5b95" stroke="#8a5b95" stroke-width="0.5"/>
            <path id="Path_48" data-name="Path 48" d="M198.744,2.6a.746.746,0,0,0,.743-.743V.743a.744.744,0,1,0-1.488,0V1.859a.746.746,0,0,0,.745.745Z" transform="translate(-183.126 0.001)" fill="#8a5b95" stroke="#8a5b95" stroke-width="0.5"/>
            <path id="Path_49" data-name="Path 49" d="M127.423,63.211a.719.719,0,0,0,0,1.041l6.582,6.582a.719.719,0,0,0,1.041,0l6.582-6.582a.736.736,0,1,0-1.041-1.041l-5.318,5.318V48.739a.744.744,0,0,0-1.488,0V68.528l-5.314-5.318a.719.719,0,0,0-1.045,0Z" transform="translate(-118.908 -43.538)" fill="#8a5b95" stroke="#8a5b95" stroke-width="0.5"/>
          </g>
        </g>
      </g>
    </g>
  </g>
</svg>
