<svg xmlns="http://www.w3.org/2000/svg" xmlns:xlink="http://www.w3.org/1999/xlink" width="67.06" height="67.061" viewBox="0 0 67.06 67.061">
  <defs>
    <filter id="Path_32" x="0" y="0" width="67.06" height="67.06" filterUnits="userSpaceOnUse">
      <feOffset dy="3" input="SourceAlpha"/>
      <feGaussianBlur stdDeviation="3" result="blur"/>
      <feFlood flood-opacity="0.059"/>
      <feComposite operator="in" in2="blur"/>
      <feComposite in="SourceGraphic"/>
    </filter>
    <filter id="Path_33" x="24.53" y="0" width="42.53" height="67.061" filterUnits="userSpaceOnUse">
      <feOffset dy="3" input="SourceAlpha"/>
      <feGaussianBlur stdDeviation="3" result="blur-2"/>
      <feFlood flood-opacity="0.059"/>
      <feComposite operator="in" in2="blur-2"/>
      <feComposite in="SourceGraphic"/>
    </filter>
    <linearGradient id="linear-gradient" x1="0.5" x2="0.5" y2="1" gradientUnits="objectBoundingBox">
      <stop offset="0" stop-color="#e80400"/>
      <stop offset="1" stop-color="#e46e00"/>
    </linearGradient>
  </defs>
  <g id="user_6_" data-name="user (6)" transform="translate(9 6)">
    <g transform="matrix(1, 0, 0, 1, -9, -6)" filter="url(#Path_32)">
      <path id="Path_32-2" data-name="Path 32" d="M49.06,24.53A24.53,24.53,0,1,1,24.53,0,24.469,24.469,0,0,1,49.06,24.53Zm0,0" transform="translate(9 6)" fill="#d1d3db"/>
    </g>
    <g transform="matrix(1, 0, 0, 1, -9, -6)" filter="url(#Path_33)">
      <path id="Path_33-2" data-name="Path 33" d="M280.53,24.53A24.53,24.53,0,0,1,256,49.06V0a24.531,24.531,0,0,1,24.53,24.53Zm0,0" transform="translate(-222.47 6)" fill="#d1d3db"/>
    </g>
    <path id="Path_34" data-name="Path 34" d="M116.549,288.151v.1a24.531,24.531,0,0,1-33.061,0v-.1a16.53,16.53,0,0,1,33.061,0Zm0,0" transform="translate(-75.488 -245.594)" fill="url(#linear-gradient)"/>
    <path id="Path_35" data-name="Path 35" d="M272.53,288.151v.1A24.444,24.444,0,0,1,256,294.654V271.621a16.529,16.529,0,0,1,16.53,16.53Zm0,0" transform="translate(-231.47 -245.594)" fill="url(#linear-gradient)"/>
    <path id="Path_36" data-name="Path 36" d="M170.468,99.252A10.139,10.139,0,1,1,160.33,89.113,10.15,10.15,0,0,1,170.468,99.252Zm0,0" transform="translate(-135.799 -80.574)" fill="#fce2cc"/>
    <path id="Path_37" data-name="Path 37" d="M266.139,99.253A10.15,10.15,0,0,1,256,109.392V89.114a10.15,10.15,0,0,1,10.139,10.139Zm0,0" transform="translate(-231.47 -80.575)" fill="#fce2cc"/>
  </g>
</svg>
