<svg xmlns="http://www.w3.org/2000/svg" width="24.63" height="29.565" viewBox="0 0 24.63 29.565">
  <g id="Group_81" data-name="Group 81" transform="translate(-45 -782)">
    <g id="lock_1_" data-name="lock (1)" transform="translate(39.65 782.001)">
      <path id="Path_83" data-name="Path 83" d="M27.721,6.055a.924.924,0,0,0-.513-.827L16.944.1a.924.924,0,0,0-.827,0L5.858,5.228a.924.924,0,0,0-.508.827V8.776a25.013,25.013,0,0,0,9.437,19.646l1.169.924a.922.922,0,0,0,1.155,0l1.173-.924c.3-.245.6-.494.887-.744a6.31,6.31,0,1,0,7-10.218,25.008,25.008,0,0,0,1.552-8.684Zm.4,17.193a4.467,4.467,0,1,1-4.458-4.467,4.467,4.467,0,0,1,4.458,4.467Zm-4.458-6.314a6.319,6.319,0,0,0-6.319,6.314,6.25,6.25,0,0,0,.725,2.929q-.462.406-.924.8l-.6.462-.591-.462A23.184,23.184,0,0,1,7.2,8.776V6.628l9.335-4.67,9.34,4.67V8.776a23.059,23.059,0,0,1-1.5,8.2,6.065,6.065,0,0,0-.707-.042Z" transform="translate(0 0)" fill="#8a5b95"/>
      <path id="Path_84" data-name="Path 84" d="M37.525,47.81a.924.924,0,1,0-1.307,1.3L38.3,51.191a.924.924,0,0,0,.656.273h0a.924.924,0,0,0,.661-.291l3.926-4.157A.924.924,0,0,0,42.2,45.768l-3.275,3.464Z" transform="translate(-16.447 -24.52)" fill="#8a5b95"/>
    </g>
  </g>
</svg>
