<svg xmlns="http://www.w3.org/2000/svg" width="30.67" height="18.726" viewBox="0 0 30.67 18.726">
  <g id="Group_74" data-name="Group 74" transform="translate(-34.5 -666.994)">
    <g id="team" transform="translate(35 667.494)">
      <path id="Path_77" data-name="Path 77" d="M10.689,40.487H2.424A.424.424,0,0,1,2,40.063V38.156a4.2,4.2,0,0,1,4.2-4.2h3.976a4.174,4.174,0,0,1,4.14,3.527.424.424,0,0,1-.837.134,3.33,3.33,0,0,0-3.3-2.814H6.2a3.352,3.352,0,0,0-3.348,3.348V39.64h7.841a.424.424,0,0,1,0,.848Z" transform="translate(-2 -26.173)" fill="#8a5b95" stroke="#8a5b95" stroke-width="1"/>
      <path id="Path_78" data-name="Path 78" d="M12.124,22.155a3.283,3.283,0,1,1,3.283-3.283,3.283,3.283,0,0,1-3.283,3.283Zm0-5.718a2.435,2.435,0,1,0,2.435,2.435,2.436,2.436,0,0,0-2.435-2.435Z" transform="translate(-5.941 -15.589)" fill="#8a5b95" stroke="#8a5b95" stroke-width="1"/>
      <path id="Path_79" data-name="Path 79" d="M54.833,40.487H46.568a.424.424,0,0,1,0-.848H54.41V38.156a3.352,3.352,0,0,0-3.348-3.348H47.085a3.33,3.33,0,0,0-3.3,2.814.424.424,0,1,1-.837-.134,4.174,4.174,0,0,1,4.14-3.528h3.976a4.2,4.2,0,0,1,4.2,4.2v1.907a.424.424,0,0,1-.424.424Z" transform="translate(-25.588 -26.173)" fill="#8a5b95" stroke="#8a5b95" stroke-width="1"/>
      <path id="Path_80" data-name="Path 80" d="M52.95,22.155a3.283,3.283,0,1,1,3.283-3.283A3.283,3.283,0,0,1,52.95,22.155Zm0-5.718a2.435,2.435,0,1,0,2.435,2.435A2.435,2.435,0,0,0,52.95,16.437Z" transform="translate(-29.463 -15.589)" fill="#8a5b95" stroke="#8a5b95" stroke-width="1"/>
      <path id="Path_81" data-name="Path 81" d="M34.09,48.128H21.1a.424.424,0,0,1-.424-.424V45.978A4.683,4.683,0,0,1,25.353,41.3h4.483a4.683,4.683,0,0,1,4.678,4.678V47.7A.424.424,0,0,1,34.09,48.128Zm-12.567-.848H33.666v-1.3a3.835,3.835,0,0,0-3.83-3.831H25.353a3.835,3.835,0,0,0-3.83,3.83Z" transform="translate(-12.76 -30.402)" fill="#8a5b95" stroke="#8a5b95" stroke-width="1"/>
      <path id="Path_82" data-name="Path 82" d="M32.039,27.88a3.649,3.649,0,1,1,3.649-3.649A3.649,3.649,0,0,1,32.039,27.88Zm0-6.451a2.8,2.8,0,1,0,2.8,2.8A2.8,2.8,0,0,0,32.039,21.429Z" transform="translate(-17.205 -18.466)" fill="#8a5b95" stroke="#8a5b95" stroke-width="1"/>
    </g>
  </g>
</svg>
