<svg xmlns="http://www.w3.org/2000/svg" width="32.677" height="23.066" viewBox="0 0 32.677 23.066">
  <g id="Group_73" data-name="Group 73" transform="translate(-30.095 -477.184)">
    <g id="machines" transform="translate(30.345 458.132)">
      <g id="Group_49" data-name="Group 49" transform="translate(0 20.807)">
        <g id="Group_48" data-name="Group 48" transform="translate(0 0)">
          <g id="Group_44" data-name="Group 44">
            <path id="Path_58" data-name="Path 58" d="M38.133,158.741H35.426a1.3,1.3,0,0,1-1.3-1.3v-1.61a8.058,8.058,0,0,1-.853-.354l-1.139,1.139a1.3,1.3,0,0,1-1.842,0L28.376,154.7a1.3,1.3,0,0,1,0-1.842l1.139-1.139a8.068,8.068,0,0,1-.354-.853h-1.61a1.3,1.3,0,0,1-1.3-1.3v-2.707a1.3,1.3,0,0,1,1.3-1.3h1.61a8.071,8.071,0,0,1,.354-.853l-1.139-1.139a1.3,1.3,0,0,1,0-1.842l1.914-1.914a1.3,1.3,0,0,1,1.842,0l1.139,1.139a8,8,0,0,1,.853-.354v-1.61a1.3,1.3,0,0,1,1.3-1.3h2.707a1.3,1.3,0,0,1,1.3,1.3v1.61a8.053,8.053,0,0,1,.853.354l1.139-1.139a1.3,1.3,0,0,1,1.842,0l1.914,1.914a1.3,1.3,0,0,1,0,1.842L44.044,144.7a8.077,8.077,0,0,1,.354.853h1.61a1.3,1.3,0,0,1,1.3,1.3v2.707a1.3,1.3,0,0,1-1.3,1.3H44.4a8.04,8.04,0,0,1-.354.853l1.139,1.139a1.3,1.3,0,0,1,0,1.842l-1.914,1.914a1.3,1.3,0,0,1-1.842,0l-1.139-1.139a8.059,8.059,0,0,1-.853.354v1.61a1.3,1.3,0,0,1-1.3,1.3ZM33.2,154.678a.358.358,0,0,1,.167.041,7.32,7.32,0,0,0,1.222.508.359.359,0,0,1,.252.343v1.869a.585.585,0,0,0,.584.584h2.707a.585.585,0,0,0,.584-.584V155.57a.359.359,0,0,1,.252-.343,7.311,7.311,0,0,0,1.222-.508.359.359,0,0,1,.421.064l1.323,1.323a.6.6,0,0,0,.826,0l1.914-1.914a.584.584,0,0,0,0-.827l-1.323-1.323a.359.359,0,0,1-.064-.421A7.325,7.325,0,0,0,43.8,150.4a.359.359,0,0,1,.343-.252h1.869a.585.585,0,0,0,.584-.584v-2.707a.585.585,0,0,0-.584-.584H44.139a.359.359,0,0,1-.343-.252,7.335,7.335,0,0,0-.508-1.222.359.359,0,0,1,.064-.421l1.323-1.323a.584.584,0,0,0,0-.826l-1.914-1.914a.6.6,0,0,0-.827,0l-1.323,1.323a.359.359,0,0,1-.421.064,7.329,7.329,0,0,0-1.222-.508.359.359,0,0,1-.252-.343v-1.869a.585.585,0,0,0-.584-.584H35.426a.585.585,0,0,0-.584.584v1.869a.359.359,0,0,1-.252.343,7.349,7.349,0,0,0-1.222.508.359.359,0,0,1-.421-.064l-1.323-1.323a.6.6,0,0,0-.827,0l-1.914,1.914a.584.584,0,0,0,0,.826l1.323,1.323a.359.359,0,0,1,.064.421,7.332,7.332,0,0,0-.508,1.222.359.359,0,0,1-.343.252H27.551a.585.585,0,0,0-.584.584v2.707a.585.585,0,0,0,.584.584H29.42a.359.359,0,0,1,.343.252,7.332,7.332,0,0,0,.508,1.222.359.359,0,0,1-.064.421l-1.323,1.323a.584.584,0,0,0,0,.826l1.914,1.914a.6.6,0,0,0,.827,0l1.323-1.323a.358.358,0,0,1,.254-.105Z" transform="translate(-26.249 -137.68)" fill="#3762cc"/>
          </g>
          <g id="Group_45" data-name="Group 45">
            <path id="Path_59" data-name="Path 59" d="M38.133,158.741H35.426a1.3,1.3,0,0,1-1.3-1.3v-1.61a8.058,8.058,0,0,1-.853-.354l-1.139,1.139a1.3,1.3,0,0,1-1.842,0L28.376,154.7a1.3,1.3,0,0,1,0-1.842l1.139-1.139a8.068,8.068,0,0,1-.354-.853h-1.61a1.3,1.3,0,0,1-1.3-1.3v-2.707a1.3,1.3,0,0,1,1.3-1.3h1.61a8.071,8.071,0,0,1,.354-.853l-1.139-1.139a1.3,1.3,0,0,1,0-1.842l1.914-1.914a1.3,1.3,0,0,1,1.842,0l1.139,1.139a8,8,0,0,1,.853-.354v-1.61a1.3,1.3,0,0,1,1.3-1.3h2.707a1.3,1.3,0,0,1,1.3,1.3v1.61a8.053,8.053,0,0,1,.853.354l1.139-1.139a1.3,1.3,0,0,1,1.842,0l1.914,1.914a1.3,1.3,0,0,1,0,1.842L44.044,144.7a8.077,8.077,0,0,1,.354.853h1.61a1.3,1.3,0,0,1,1.3,1.3v2.707a1.3,1.3,0,0,1-1.3,1.3H44.4a8.04,8.04,0,0,1-.354.853l1.139,1.139a1.3,1.3,0,0,1,0,1.842l-1.914,1.914a1.3,1.3,0,0,1-1.842,0l-1.139-1.139a8.059,8.059,0,0,1-.853.354v1.61a1.3,1.3,0,0,1-1.3,1.3ZM33.2,154.678a.358.358,0,0,1,.167.041,7.32,7.32,0,0,0,1.222.508.359.359,0,0,1,.252.343v1.869a.585.585,0,0,0,.584.584h2.707a.585.585,0,0,0,.584-.584V155.57a.359.359,0,0,1,.252-.343,7.311,7.311,0,0,0,1.222-.508.359.359,0,0,1,.421.064l1.323,1.323a.6.6,0,0,0,.826,0l1.914-1.914a.584.584,0,0,0,0-.827l-1.323-1.323a.359.359,0,0,1-.064-.421A7.325,7.325,0,0,0,43.8,150.4a.359.359,0,0,1,.343-.252h1.869a.585.585,0,0,0,.584-.584v-2.707a.585.585,0,0,0-.584-.584H44.139a.359.359,0,0,1-.343-.252,7.335,7.335,0,0,0-.508-1.222.359.359,0,0,1,.064-.421l1.323-1.323a.584.584,0,0,0,0-.826l-1.914-1.914a.6.6,0,0,0-.827,0l-1.323,1.323a.359.359,0,0,1-.421.064,7.329,7.329,0,0,0-1.222-.508.359.359,0,0,1-.252-.343v-1.869a.585.585,0,0,0-.584-.584H35.426a.585.585,0,0,0-.584.584v1.869a.359.359,0,0,1-.252.343,7.349,7.349,0,0,0-1.222.508.359.359,0,0,1-.421-.064l-1.323-1.323a.6.6,0,0,0-.827,0l-1.914,1.914a.584.584,0,0,0,0,.826l1.323,1.323a.359.359,0,0,1,.064.421,7.332,7.332,0,0,0-.508,1.222.359.359,0,0,1-.343.252H27.551a.585.585,0,0,0-.584.584v2.707a.585.585,0,0,0,.584.584H29.42a.359.359,0,0,1,.343.252,7.332,7.332,0,0,0,.508,1.222.359.359,0,0,1-.064.421l-1.323,1.323a.584.584,0,0,0,0,.826l1.914,1.914a.6.6,0,0,0,.827,0l1.323-1.323a.358.358,0,0,1,.254-.105Z" transform="translate(-26.249 -137.68)" fill="#8a5b95" stroke="#8a5b95" stroke-width="0.5"/>
          </g>
          <g id="Group_46" data-name="Group 46" transform="translate(4.976 4.976)">
            <path id="Path_60" data-name="Path 60" d="M59.521,176.507a5.555,5.555,0,1,1,5.554-5.555A5.561,5.561,0,0,1,59.521,176.507Zm0-10.392a4.837,4.837,0,1,0,4.836,4.837A4.842,4.842,0,0,0,59.521,166.115Z" transform="translate(-53.966 -165.397)" fill="#3762cc"/>
          </g>
          <g id="Group_47" data-name="Group 47" transform="translate(4.976 4.976)">
            <path id="Path_61" data-name="Path 61" d="M59.521,176.507a5.555,5.555,0,1,1,5.554-5.555A5.561,5.561,0,0,1,59.521,176.507Zm0-10.392a4.837,4.837,0,1,0,4.836,4.837A4.842,4.842,0,0,0,59.521,166.115Zm0,8.212a3.375,3.375,0,1,1,3.375-3.375A3.379,3.379,0,0,1,59.521,174.327Zm0-6.032a2.657,2.657,0,1,0,2.657,2.657A2.66,2.66,0,0,0,59.521,168.295Z" transform="translate(-53.966 -165.397)" fill="#8a5b95"/>
          </g>
        </g>
      </g>
      <g id="Group_62" data-name="Group 62" transform="translate(20.982 19.052)">
        <g id="Group_54" data-name="Group 54" transform="translate(1.435 1.123)">
          <path id="Path_66" data-name="Path 66" d="M155.41,142.176a4.292,4.292,0,0,1-4.287-4.287v-3.372a.359.359,0,0,1,.359-.359h7.857a.359.359,0,0,1,.359.359v3.372A4.292,4.292,0,0,1,155.41,142.176Zm-3.569-7.3v3.013a3.569,3.569,0,0,0,7.139,0v-3.013Z" transform="translate(-151.123 -134.158)" fill="#8a5b95"/>
        </g>
        <g id="Group_55" data-name="Group 55" transform="translate(1.435 8.396)">
          <path id="Path_67" data-name="Path 67" d="M159.339,182.692h-7.857a.359.359,0,0,1-.359-.359v-3.372a4.287,4.287,0,0,1,8.575,0v3.372A.359.359,0,0,1,159.339,182.692Zm-7.5-.718h7.139v-3.013a3.569,3.569,0,0,0-7.139,0Z" transform="translate(-151.123 -174.674)" fill="#8a5b95"/>
        </g>
        <g id="Group_56" data-name="Group 56" transform="translate(2.762 4.773)">
          <path id="Path_68" data-name="Path 68" d="M161.475,157.547a2.968,2.968,0,0,1-2.958-2.66.359.359,0,0,1,.357-.4h5.2a.359.359,0,0,1,.357.4A2.969,2.969,0,0,1,161.475,157.547Zm-2.166-2.338a2.258,2.258,0,0,0,4.333,0Z" transform="translate(-158.515 -154.49)" fill="#8a5b95"/>
        </g>
        <g id="Group_57" data-name="Group 57" transform="translate(2.747 11.207)">
          <path id="Path_69" data-name="Path 69" d="M164.022,194.416h-5.233a.359.359,0,0,1-.359-.359v-.75a2.976,2.976,0,0,1,5.951,0v.75A.359.359,0,0,1,164.022,194.416Zm-4.874-.718h4.515v-.391a2.258,2.258,0,0,0-4.515,0Z" transform="translate(-158.43 -190.331)" fill="#8a5b95"/>
        </g>
        <g id="Group_60" data-name="Group 60">
          <path id="Path_72" data-name="Path 72" d="M153.091,130.868H144.61a1.482,1.482,0,1,1,0-2.963h8.482a1.482,1.482,0,1,1,0,2.963Zm-8.482-2.245a.764.764,0,1,0,0,1.527h8.482a.764.764,0,1,0,0-1.527Z" transform="translate(-143.128 -127.905)" fill="#8a5b95"/>
        </g>
        <g id="Group_61" data-name="Group 61" transform="translate(0 14.574)">
          <path id="Path_73" data-name="Path 73" d="M153.091,212.049H144.61a1.482,1.482,0,1,1,0-2.963h8.482a1.482,1.482,0,1,1,0,2.963ZM144.61,209.8a.764.764,0,1,0,0,1.527h8.482a.764.764,0,1,0,0-1.527Z" transform="translate(-143.128 -209.086)" fill="#8a5b95"/>
        </g>
      </g>
    </g>
  </g>
</svg>
