<svg xmlns="http://www.w3.org/2000/svg" width="35.193" height="18.139" viewBox="0 0 35.193 18.139">
  <g id="Group_71" data-name="Group 71" transform="translate(-35 -346)">
    <g id="sap_1_" data-name="sap (1)" transform="translate(35 346)">
      <g id="Group_64" data-name="Group 64" transform="translate(19.988 5.441)">
        <g id="Group_63" data-name="Group 63">
          <path id="Path_74" data-name="Path 74" d="M292.05,203.211H291.3a.516.516,0,0,0-.516.516v2.744a.516.516,0,0,0,.516.516h.749c2.088,0,2.313-1.33,2.313-1.9S294.138,203.211,292.05,203.211Zm-.234,2.744v-1.712c.8,0,1.515.041,1.515.841C293.331,205.9,292.641,205.955,291.817,205.955Z" transform="translate(-290.785 -203.211)" fill="#8a5b95"/>
        </g>
      </g>
      <g id="Group_66" data-name="Group 66" transform="translate(11.577 6.545)">
        <g id="Group_65" data-name="Group 65">
          <path id="Path_75" data-name="Path 75" d="M171.594,223.057l-1.057-3.415a.53.53,0,0,0-1.005,0l-1.08,3.4a.516.516,0,0,0,.307.638,3.709,3.709,0,0,0,2.519.014A.516.516,0,0,0,171.594,223.057Zm-2-.215.43-1.355.421,1.359A2.8,2.8,0,0,1,169.6,222.841Z" transform="translate(-168.428 -219.279)" fill="#8a5b95"/>
        </g>
      </g>
      <g id="Group_68" data-name="Group 68" transform="translate(0 0)">
        <g id="Group_67" data-name="Group 67">
          <path id="Path_76" data-name="Path 76" d="M34.367,124.053h-19.1a.516.516,0,1,0,0,1.032h18.6l-7.7,7.7a4.313,4.313,0,0,0-1.191-4.512,6.338,6.338,0,0,0-3.926-1H17.647a.516.516,0,0,0-.516.516v5.192l-1.973-5.37a.516.516,0,0,0-.484-.338h-2.95a.516.516,0,0,0-.483.335l-2.087,5.563c-1.255-1.7-4.01-1.772-4.736-2.561a1.441,1.441,0,0,1,.978-.185,5,5,0,0,1,2.289.62.516.516,0,0,0,.672-.207c1.279-2.222,1.318-2.183,1.233-2.466a.516.516,0,0,0-.261-.313c-2.636-1.337-6.694-1.52-8.3.967v-3.936h11.83a.516.516,0,0,0,0-1.032H.826a.827.827,0,0,0-.826.826v16.8a.516.516,0,0,0,.516.516H12.862a.516.516,0,0,0,0-1.032H1.032v-3.046a7.582,7.582,0,0,0,6.256.466.516.516,0,0,0,.468.3h3.092a.516.516,0,0,0,.49-.355l.363-1.1a6.479,6.479,0,0,0,2.917.009l.351,1.092a.516.516,0,0,0,.491.358h4.615l-2.283,2.282H15.269a.516.516,0,0,0,0,1.032h2.608a.831.831,0,0,0,.584-.242l16.49-16.488A.826.826,0,0,0,34.367,124.053ZM1.6,135.2l-.57,1.13v-3.56a6.081,6.081,0,0,0,3.311,1.992c.382.119,1.275.4,1.343.589-.006.317-.5.363-.813.371a4.223,4.223,0,0,1-2.548-.733A.516.516,0,0,0,1.6,135.2Zm19.418,2.736v-2.322a7.557,7.557,0,0,0,2.636-.314Zm.582-3.354H20.5a.516.516,0,0,0-.516.516v2.751H15.836l-.387-1.2a.516.516,0,0,0-.648-.334,5.392,5.392,0,0,1-3.274-.011.516.516,0,0,0-.652.328l-.4,1.22H8.5l.079-.212a.516.516,0,0,0-.188-.6c-.725-.507-.72.968-3.524,1A7.28,7.28,0,0,1,1.7,137.3l.582-1.155a4.973,4.973,0,0,0,2.612.61c1.332-.032,1.811-.728,1.823-1.384.036-2.1-5.25-1.152-5.191-4.527.037-2.474,3.409-3.483,6.839-2.091L7.7,129.91c-2.078-.9-4.31-.65-4.334.689-.01.668.7,1.21,2.24,1.707,1.558.494,2.865,1.009,3.072,2.324a.516.516,0,0,0,.993.1l2.414-6.433h2.232l2.849,7.754a.516.516,0,0,0,1-.178V128.3c3.929,0,7.158-.38,7.158,3.172C25.321,133.446,23.965,134.579,21.6,134.579Z" transform="translate(0 -124.053)" fill="#8a5b95"/>
        </g>
      </g>
    </g>
  </g>
</svg>
