<svg xmlns="http://www.w3.org/2000/svg" xmlns:xlink="http://www.w3.org/1999/xlink" width="20.454" height="30.105" viewBox="0 0 20.454 30.105">
  <defs>
    <linearGradient id="linear-gradient" x1="0.5" x2="0.5" y2="1" gradientUnits="objectBoundingBox">
      <stop offset="0" stop-color="#e80400"/>
      <stop offset="1" stop-color="#e46e00"/>
    </linearGradient>
  </defs>
  <g id="Group_129" data-name="Group 129" transform="translate(1742.713 -2955.14)">
    <g id="automation_1_" data-name="automation (1)" transform="translate(-1824.785 2955.14)">
      <path id="Path_48" data-name="Path 48" d="M100.986,25.429v-2.85a.882.882,0,0,0-.882-.882H93.181V19.59h.6a.882.882,0,0,0,.863-.7l.36-1.7a7.921,7.921,0,0,0,2.313-1.337l1.656.54a.882.882,0,0,0,1.037-.4l1.5-2.6a.882.882,0,0,0-.174-1.1l-1.3-1.163a7.917,7.917,0,0,0,0-2.672l1.3-1.163a.882.882,0,0,0,.174-1.1l-1.5-2.6a.882.882,0,0,0-1.037-.4l-1.656.54A7.923,7.923,0,0,0,95.006,2.4L94.646.7a.882.882,0,0,0-.863-.7H90.778a.882.882,0,0,0-.863.7l-.36,1.7a7.92,7.92,0,0,0-2.314,1.337L85.586,3.2a.882.882,0,0,0-1.037.4l-1.5,2.6a.882.882,0,0,0,.174,1.1l1.3,1.163a7.923,7.923,0,0,0,0,2.672l-1.3,1.163a.882.882,0,0,0-.174,1.1l1.5,2.6a.882.882,0,0,0,1.037.4l1.656-.54a7.921,7.921,0,0,0,2.314,1.337l.36,1.7a.882.882,0,0,0,.863.7h.639V21.7H84.493a.882.882,0,0,0-.882.882v2.85a2.422,2.422,0,1,0,1.764,0V23.461h6.041v1.968a2.421,2.421,0,1,0,1.764,0V23.461h6.041v1.968a2.422,2.422,0,1,0,1.764,0ZM90.561,15.664a6.132,6.132,0,0,1-2.5-1.446.882.882,0,0,0-.883-.2l-1.457.475-.787-1.364,1.14-1.023a.882.882,0,0,0,.268-.864,6.153,6.153,0,0,1,0-2.893.882.882,0,0,0-.268-.864L84.932,6.462,85.719,5.1l1.457.475a.882.882,0,0,0,.883-.2,6.131,6.131,0,0,1,2.5-1.446.882.882,0,0,0,.616-.664l.317-1.5h1.575l.317,1.5A.882.882,0,0,0,94,3.927a6.135,6.135,0,0,1,2.5,1.446.881.881,0,0,0,.883.2L98.842,5.1l.787,1.364L98.49,7.485a.882.882,0,0,0-.268.864,6.147,6.147,0,0,1,0,2.892.882.882,0,0,0,.268.864l1.14,1.024-.787,1.364-1.458-.476a.882.882,0,0,0-.883.2A6.134,6.134,0,0,1,94,15.664a.882.882,0,0,0-.615.664l-.317,1.5H91.493l-.317-1.5A.882.882,0,0,0,90.561,15.664ZM84.493,28.341a.658.658,0,1,1,.658-.657A.658.658,0,0,1,84.493,28.341Zm7.805,0a.658.658,0,1,1,.657-.657A.658.658,0,0,1,92.3,28.341Zm7.805,0a.658.658,0,1,1,.658-.657A.658.658,0,0,1,100.1,28.341Z" transform="translate(0)" fill="url(#linear-gradient)"/>
      <path id="Path_49" data-name="Path 49" d="M195.673,102.569a4,4,0,1,0-4,4A4,4,0,0,0,195.673,102.569Zm-6.235,0a2.235,2.235,0,1,1,2.236,2.236A2.238,2.238,0,0,1,189.438,102.569Z" transform="translate(-99.393 -92.774)" fill="url(#linear-gradient)"/>
    </g>
  </g>
</svg>
