<svg xmlns="http://www.w3.org/2000/svg" xmlns:xlink="http://www.w3.org/1999/xlink" width="26.069" height="26.069" viewBox="0 0 26.069 26.069">
  <defs>
    <linearGradient id="linear-gradient" x1="0.5" x2="0.5" y2="1" gradientUnits="objectBoundingBox">
      <stop offset="0" stop-color="#e80400"/>
      <stop offset="1" stop-color="#e46e00"/>
    </linearGradient>
  </defs>
  <g id="Group_131" data-name="Group 131" transform="translate(1745.012 -3091.14)">
    <g id="files" transform="translate(-1745.012 3091.14)">
      <g id="Group_5" data-name="Group 5" transform="translate(0 0)">
        <g id="Group_4" data-name="Group 4">
          <path id="Path_17" data-name="Path 17" d="M1.629,23.625V2.444a.815.815,0,0,1,.815-.815h12.22V4.888a1.629,1.629,0,0,0,1.629,1.629h3.259V8.961h1.629V5.7a.814.814,0,0,0-.236-.578L16.057.236A.815.815,0,0,0,15.478,0H2.444A2.444,2.444,0,0,0,0,2.444V23.625a2.444,2.444,0,0,0,2.444,2.444h5.7V24.439h-5.7A.815.815,0,0,1,1.629,23.625Z" transform="translate(0 0)" fill="url(#linear-gradient)"/>
          <path id="Path_18" data-name="Path 18" d="M388.888,259.259h-1.629v1.629h1.629v1.629h-3.259v-4.888h4.888A1.629,1.629,0,0,0,388.888,256h-3.259A1.629,1.629,0,0,0,384,257.629v4.888a1.629,1.629,0,0,0,1.629,1.629h3.259a1.629,1.629,0,0,0,1.629-1.629v-1.629A1.629,1.629,0,0,0,388.888,259.259Z" transform="translate(-364.448 -242.966)" fill="url(#linear-gradient)"/>
          <path id="Path_19" data-name="Path 19" d="M243.259,256A3.259,3.259,0,0,0,240,259.259v1.629a3.259,3.259,0,0,0,6.517,0v-1.629A3.259,3.259,0,0,0,243.259,256Zm1.629,4.888a1.629,1.629,0,0,1-3.259,0v-1.629a1.629,1.629,0,1,1,3.259,0Z" transform="translate(-227.78 -242.966)" fill="url(#linear-gradient)"/>
          <path id="Path_20" data-name="Path 20" d="M129.629,256H128v7.332a.815.815,0,0,0,.815.815h4.073v-1.629h-3.259Z" transform="translate(-121.483 -242.966)" fill="url(#linear-gradient)"/>
        </g>
      </g>
    </g>
  </g>
</svg>
