<svg xmlns="http://www.w3.org/2000/svg" xmlns:xlink="http://www.w3.org/1999/xlink" width="24.653" height="25.412" viewBox="0 0 24.653 25.412">
  <defs>
    <linearGradient id="linear-gradient" x1="0.5" x2="0.5" y2="1" gradientUnits="objectBoundingBox">
      <stop offset="0" stop-color="#e80400"/>
      <stop offset="1" stop-color="#e46e00"/>
    </linearGradient>
  </defs>
  <path id="shift" d="M13.3,20.694V16.7l-1.254,1.32a.394.394,0,1,1-.571-.543l1.883-1.983a.394.394,0,0,1,.557-.014L15.9,17.363a.394.394,0,1,1-.543.571l-1.268-1.2v3.964a1.068,1.068,0,0,0,1.067,1.067H19.1a.394.394,0,1,1,0,.788H15.16A1.857,1.857,0,0,1,13.3,20.694Zm11.4-17.632H18.379a.394.394,0,1,0,0,.788h6.327a1.068,1.068,0,0,1,1.067,1.067v3.9L24.519,7.5a.394.394,0,1,0-.571.543l1.883,1.983a.394.394,0,0,0,.276.123h.01a.394.394,0,0,0,.271-.108l1.983-1.883a.394.394,0,1,0-.543-.571l-1.268,1.2V4.917A1.857,1.857,0,0,0,24.706,3.062ZM12.735,6.626a3.364,3.364,0,1,1,1.686,0,5.476,5.476,0,0,1,5.029,5.451V14.44a.394.394,0,0,1-.394.394H8.1a.394.394,0,0,1-.394-.394V12.076a5.476,5.476,0,0,1,5.029-5.451Zm-.017,4.533.86,1.026.86-1.026L13.916,7.4H13.24Zm.86-5.213A2.576,2.576,0,1,0,11,3.369a2.576,2.576,0,0,0,2.576,2.576ZM8.494,12.076v1.97H10a.393.393,0,0,1-.021-.125V11.528a.394.394,0,0,1,.788,0v2.393a.392.392,0,0,1-.021.125h5.654a.392.392,0,0,1-.021-.125V11.528a.394.394,0,0,1,.788,0v2.393a.393.393,0,0,1-.021.125h1.51v-1.97A4.688,4.688,0,0,0,14.72,7.454l.523,3.769a.394.394,0,0,1-.088.307L13.88,13.05a.394.394,0,0,1-.6,0L12,11.53a.394.394,0,0,1-.088-.307l.523-3.769A4.688,4.688,0,0,0,8.494,12.076ZM20.415,24.824V22.459a5.476,5.476,0,0,1,5.029-5.451,3.364,3.364,0,1,1,1.686,0,5.476,5.476,0,0,1,5.029,5.451v2.364a.394.394,0,0,1-.394.394H20.809A.394.394,0,0,1,20.415,24.824Zm5.012-3.282.86,1.026.86-1.026-.522-3.763h-.676Zm.86-5.214a2.576,2.576,0,1,0-2.576-2.576A2.576,2.576,0,0,0,26.287,16.328ZM21.2,24.43h1.51a.393.393,0,0,1-.021-.125V21.911a.394.394,0,0,1,.788,0V24.3a.393.393,0,0,1-.021.125h5.654a.393.393,0,0,1-.021-.125V21.911a.394.394,0,0,1,.788,0V24.3a.393.393,0,0,1-.021.125h1.51v-1.97a4.688,4.688,0,0,0-3.943-4.622l.523,3.769a.394.394,0,0,1-.088.307l-1.274,1.52a.394.394,0,0,1-.6,0l-1.274-1.52a.394.394,0,0,1-.088-.307l.523-3.769A4.688,4.688,0,0,0,21.2,22.459Z" transform="translate(-7.606 0.094)" stroke="#e80400" stroke-width="0.2" fill="url(#linear-gradient)"/>
</svg>
