<svg id="audit-report-survey" xmlns="http://www.w3.org/2000/svg" width="14.365" height="17.759" viewBox="0 0 14.365 17.759">
  <path id="Path_134" data-name="Path 134" d="M9.5,1.838a.377.377,0,0,1-.123-.019.368.368,0,0,1-.367-.367V.73H5.449v.723a.365.365,0,0,1-.33.361.413.413,0,0,1-.129.019H3.649v1.5h7.023v-1.5H9.485l.013.007ZM3.3,10.844a.723.723,0,1,1-.723.723.723.723,0,0,1,.723-.723ZM2.467,9.062A.325.325,0,0,1,3.008,8.7l.178.263.7-.856a.326.326,0,0,1,.5.413L3.418,9.706a.38.38,0,0,1-.078.074.324.324,0,0,1-.451-.09l-.422-.629Zm0-2.5A.325.325,0,0,1,3.008,6.2l.178.263.7-.857a.326.326,0,1,1,.5.413L3.418,7.2a.38.38,0,0,1-.078.074.324.324,0,0,1-.451-.09l-.422-.627ZM10,17.663a.379.379,0,0,1-.246.1.2.2,0,0,1-.058-.006H.812a.812.812,0,0,1-.574-.238A.8.8,0,0,1,0,16.94V2.869a.814.814,0,0,1,.812-.812H2.927v-.4a.54.54,0,0,1,.162-.387.547.547,0,0,1,.387-.162H4.727v-.5A.6.6,0,0,1,4.908.181.6.6,0,0,1,5.333,0H9.144a.6.6,0,0,1,.425.181A.6.6,0,0,1,9.75.606v.5h1.129a.571.571,0,0,1,.387.162.557.557,0,0,1,.162.387v.4h2.114a.814.814,0,0,1,.812.812V13.02a.371.371,0,0,1-.11.367l-4.2,4.249a.126.126,0,0,1-.032.026Zm-.613-.639c0-4.859-.613-4.282,4.223-4.282V2.869a.068.068,0,0,0-.026-.058.081.081,0,0,0-.058-.026H11.413v.736a.54.54,0,0,1-.162.387.547.547,0,0,1-.387.162h-7.4a.557.557,0,0,1-.387-.162c-.013-.013-.019-.026-.032-.039a.561.561,0,0,1-.129-.348V2.785H.806a.068.068,0,0,0-.058.026.1.1,0,0,0-.026.058V16.94A.061.061,0,0,0,.749,17a.081.081,0,0,0,.058.026H9.388Zm-3.43-5.2a.367.367,0,0,1,0-.734H9.446a.367.367,0,1,1,0,.734Zm0-5.243a.367.367,0,0,1,0-.734h5.371a.367.367,0,1,1,0,.734Zm0,2.622a.367.367,0,0,1,0-.734h5.371a.367.367,0,1,1,0,.734Z" fill="#fff"/>
</svg>
