<svg xmlns="http://www.w3.org/2000/svg" width="21.221" height="18.862" viewBox="0 0 21.221 18.862">
  <g id="control-panel" transform="translate(0 -28.463)">
    <path id="Path_118" data-name="Path 118" d="M47.144,73.936H57.527a.311.311,0,1,0,0-.622H47.144a.311.311,0,0,0,0,.622Z" transform="translate(-44.892 -42.992)" fill="#fff"/>
    <path id="Path_119" data-name="Path 119" d="M20.91,40.9a.311.311,0,0,0,.311-.311V29.649a1.188,1.188,0,0,0-1.186-1.186H1.186A1.188,1.188,0,0,0,0,29.649V46.138a1.188,1.188,0,0,0,1.186,1.186H20.035a1.188,1.188,0,0,0,1.186-1.186v-4.1a.311.311,0,1,0-.622,0v4.1a.565.565,0,0,1-.565.565H1.186a.565.565,0,0,1-.565-.565V32.8h.817a.311.311,0,1,0,0-.622H.622V29.649a.565.565,0,0,1,.565-.565H20.035a.565.565,0,0,1,.565.565v2.532H2.892a.311.311,0,1,0,0,.622H20.6v7.785A.311.311,0,0,0,20.91,40.9Z" transform="translate(0 0)" fill="#fff"/>
    <path id="Path_120" data-name="Path 120" d="M414.327,56.2a1.066,1.066,0,1,0-1.066,1.066A1.067,1.067,0,0,0,414.327,56.2Zm-1.51,0a.444.444,0,1,1,.444.444A.445.445,0,0,1,412.818,56.2Z" transform="translate(-395.111 -25.566)" fill="#fff"/>
    <path id="Path_121" data-name="Path 121" d="M341.294,56.2a1.066,1.066,0,1,0-1.066,1.066A1.067,1.067,0,0,0,341.294,56.2Zm-1.51,0a.444.444,0,1,1,.444.444A.445.445,0,0,1,339.785,56.2Z" transform="translate(-325.105 -25.566)" fill="#fff"/>
    <path id="Path_122" data-name="Path 122" d="M300.479,193.67H296.3v0a.918.918,0,0,0-1.837,0v0H293.9a.311.311,0,1,0,0,.622h.562a.918.918,0,0,0,1.835,0h4.179a.311.311,0,0,0,0-.622Zm-4.8.589a.3.3,0,1,1-.593,0v-.592a.3.3,0,0,1,.593,0Z" transform="translate(-281.423 -157.477)" fill="#fff"/>
    <path id="Path_123" data-name="Path 123" d="M300.479,270.816h-.561a.918.918,0,0,0-1.836,0H293.9a.311.311,0,1,0,0,.622h4.179a.918.918,0,0,0,1.836,0h.561a.311.311,0,0,0,0-.622Zm-1.183.607a.3.3,0,0,1-.593,0v-.591a.3.3,0,1,1,.593,0Z" transform="translate(-281.423 -231.442)" fill="#fff"/>
    <path id="Path_124" data-name="Path 124" d="M300.479,347.555H296.3a.918.918,0,0,0-1.836,0H293.9a.311.311,0,1,0,0,.622h.561a.918.918,0,0,0,1.836,0h4.179a.311.311,0,0,0,0-.622Zm-4.8.607a.3.3,0,1,1-.593,0v-.591a.3.3,0,1,1,.593,0Z" transform="translate(-281.423 -305.001)" fill="#fff"/>
    <path id="Path_125" data-name="Path 125" d="M98.4,244.139a2.274,2.274,0,1,0,2.274,2.274A2.276,2.276,0,0,0,98.4,244.139Zm0,3.926a1.652,1.652,0,1,1,1.652-1.652A1.654,1.654,0,0,1,98.4,248.065Z" transform="translate(-92.147 -206.737)" fill="#fff"/>
    <path id="Path_126" data-name="Path 126" d="M52.979,198.1a.569.569,0,0,0,.568-.568v-.758a.569.569,0,0,0-.568-.568h-.185a3.747,3.747,0,0,0-.4-.963l.131-.131a.568.568,0,0,0,0-.8l-.536-.536a.569.569,0,0,0-.8,0l-.131.131a3.746,3.746,0,0,0-.963-.4v-.185a.569.569,0,0,0-.568-.568h-.758a.569.569,0,0,0-.568.568v.185a3.749,3.749,0,0,0-.964.4l-.131-.131a.569.569,0,0,0-.8,0l-.536.536a.568.568,0,0,0,0,.8l.131.131a3.749,3.749,0,0,0-.4.964h-.185a.569.569,0,0,0-.568.568v.758a.569.569,0,0,0,.568.568h.185a3.747,3.747,0,0,0,.4.964l-.131.131a.568.568,0,0,0,0,.8l.536.536a.569.569,0,0,0,.8,0l.131-.131a3.748,3.748,0,0,0,.964.4v.185a.569.569,0,0,0,.568.568h.758a.569.569,0,0,0,.568-.568V200.8a3.746,3.746,0,0,0,.963-.4l.131.131a.569.569,0,0,0,.8,0l.536-.536a.568.568,0,0,0,0-.8l-.131-.131a3.749,3.749,0,0,0,.4-.964Zm-.779-.189a3.128,3.128,0,0,1-.359.865.568.568,0,0,0,.084.7l.123.123-.461.461-.123-.123a.568.568,0,0,0-.7-.084,3.127,3.127,0,0,1-.865.359.568.568,0,0,0-.433.552v.174h-.652v-.174a.568.568,0,0,0-.433-.552,3.127,3.127,0,0,1-.865-.359.568.568,0,0,0-.7.084l-.123.123-.461-.461.123-.123a.568.568,0,0,0,.084-.7,3.125,3.125,0,0,1-.359-.865.568.568,0,0,0-.552-.433h-.174v-.651h.174a.568.568,0,0,0,.552-.433,3.127,3.127,0,0,1,.359-.865.568.568,0,0,0-.084-.7l-.123-.123.461-.461.123.123a.568.568,0,0,0,.7.084,3.126,3.126,0,0,1,.865-.359.568.568,0,0,0,.433-.552v-.174h.651v.174a.568.568,0,0,0,.433.552,3.124,3.124,0,0,1,.865.359.568.568,0,0,0,.7-.084l.123-.123.461.461-.123.123a.568.568,0,0,0-.084.7,3.127,3.127,0,0,1,.359.865.568.568,0,0,0,.552.433h.174v.651h-.174A.568.568,0,0,0,52.2,197.913Z" transform="translate(-42.886 -157.478)" fill="#fff"/>
  </g>
</svg>
