<svg xmlns="http://www.w3.org/2000/svg" width="18.068" height="22.708" viewBox="0 0 18.068 22.708">
  <g id="Group_161" data-name="Group 161" transform="translate(2000.1 -3281.9)">
    <g id="Group_139" data-name="Group 139" transform="translate(-1997.898 3286.725)">
      <g id="Group_52" data-name="Group 52" transform="translate(3.97 1.081)">
        <g id="Group_51" data-name="Group 51" transform="translate(0 0)">
          <path id="Path_45" data-name="Path 45" d="M291.036,203.211h-.149a.1.1,0,0,0-.1.1v.545a.1.1,0,0,0,.1.1h.149c.415,0,.459-.264.459-.378S291.451,203.211,291.036,203.211Zm-.046.545v-.34c.16,0,.3.008.3.167S291.154,203.756,290.99,203.756Z" transform="translate(-290.785 -203.211)" fill="#fff"/>
        </g>
      </g>
      <g id="Group_54" data-name="Group 54" transform="translate(2.299 1.3)">
        <g id="Group_53" data-name="Group 53" transform="translate(0 0)">
          <path id="Path_46" data-name="Path 46" d="M169.057,220.029l-.21-.678a.105.105,0,0,0-.2,0l-.215.676a.1.1,0,0,0,.061.127.737.737,0,0,0,.5,0A.1.1,0,0,0,169.057,220.029Zm-.4-.043.085-.269.084.27A.555.555,0,0,1,168.66,219.986Z" transform="translate(-168.428 -219.279)" fill="#fff"/>
        </g>
      </g>
      <g id="Group_56" data-name="Group 56" transform="translate(0 0)">
        <g id="Group_55" data-name="Group 55" transform="translate(0 0)">
          <path id="Path_47" data-name="Path 47" d="M6.826,124.053H3.033a.1.1,0,0,0,0,.2H6.727L5.2,125.787a.857.857,0,0,0-.237-.9,1.259,1.259,0,0,0-.78-.2H3.5a.1.1,0,0,0-.1.1v1.031l-.392-1.067a.1.1,0,0,0-.1-.067H2.329a.1.1,0,0,0-.1.066l-.415,1.1c-.249-.337-.8-.352-.941-.509a.286.286,0,0,1,.194-.037.993.993,0,0,1,.455.123.1.1,0,0,0,.133-.041c.254-.441.262-.434.245-.49a.1.1,0,0,0-.052-.062c-.523-.265-1.33-.3-1.648.192v-.782h2.35a.1.1,0,0,0,0-.2H.164a.164.164,0,0,0-.164.164v3.336a.1.1,0,0,0,.1.1H2.555a.1.1,0,0,0,0-.2H.2v-.605a1.506,1.506,0,0,0,1.243.093A.1.1,0,0,0,1.54,127h.614a.1.1,0,0,0,.1-.07l.072-.219a1.287,1.287,0,0,0,.579,0l.07.217a.1.1,0,0,0,.1.071h.917l-.453.453h-.5a.1.1,0,0,0,0,.2h.518a.165.165,0,0,0,.116-.048l3.275-3.275A.164.164,0,0,0,6.826,124.053ZM.318,126.266l-.113.225v-.707a1.208,1.208,0,0,0,.658.4c.076.024.253.079.267.117,0,.063-.1.072-.162.074a.839.839,0,0,1-.506-.146A.1.1,0,0,0,.318,126.266Zm3.857.543v-.461a1.5,1.5,0,0,0,.524-.062Zm.116-.666H4.072a.1.1,0,0,0-.1.1v.546H3.145l-.077-.239a.1.1,0,0,0-.129-.066,1.071,1.071,0,0,1-.65,0,.1.1,0,0,0-.13.065l-.08.242H1.688l.016-.042a.1.1,0,0,0-.037-.12c-.144-.1-.143.192-.7.2a1.446,1.446,0,0,1-.629-.145l.116-.229a.987.987,0,0,0,.519.121c.265-.006.36-.145.362-.275.007-.417-1.043-.229-1.031-.9.007-.491.677-.692,1.358-.415l-.133.231c-.413-.178-.856-.129-.861.137,0,.133.139.24.445.339s.569.2.61.462a.1.1,0,0,0,.2.02L2.4,124.9h.443l.566,1.54a.1.1,0,0,0,.2-.035v-1.5c.78,0,1.422-.076,1.422.63C5.029,125.919,4.76,126.144,4.29,126.144Z" transform="translate(0 -124.053)" fill="#fff"/>
        </g>
      </g>
    </g>
    <path id="report_3_" data-name="report (3)" d="M36.868,16.952a.106.106,0,0,0-.029-.086v-.029c0-.029-.029-.058-.058-.086l-5.764-5.764c-.029-.029-.058-.058-.086-.058H30.9a.106.106,0,0,1-.086-.029H19.865a.849.849,0,0,0-.865.865V32.544a.849.849,0,0,0,.865.865H36a.849.849,0,0,0,.865-.865V16.952Zm-.98-.259H31.1V11.909ZM36,32.832H19.865a.272.272,0,0,1-.288-.288V11.793a.272.272,0,0,1,.288-.288H30.528v5.476a.272.272,0,0,0,.288.288h5.476V32.544A.272.272,0,0,1,36,32.832ZM33.41,20.439H30.528a.272.272,0,0,0-.288.288V23.61H27.646a.272.272,0,0,0-.288.288v2.017H24.764a.272.272,0,0,0-.288.288v2.017H21.882a.272.272,0,0,0-.288.288v2.306a.272.272,0,0,0,.288.288H33.41a.272.272,0,0,0,.288-.288V20.728A.272.272,0,0,0,33.41,20.439ZM22.17,28.8h2.306v1.729H22.17Zm2.882-.288V26.492h2.306v4.035H25.052ZM27.934,26.2V24.186H30.24v6.34H27.934Zm5.188,4.323H30.816V21.016h2.306ZM24.188,21.3H21.306a.288.288,0,1,1,0-.576h2.882a.288.288,0,1,1,0,.576Z" transform="translate(-2019 3271.1)" fill="#fff" stroke="#fff" stroke-width="0.2"/>
  </g>
</svg>
