<svg xmlns="http://www.w3.org/2000/svg" width="20.693" height="20.694" viewBox="0 0 20.693 20.694">
  <g id="management_1_" data-name="management (1)" transform="translate(-0.014)">
    <g id="Group_142" data-name="Group 142" transform="translate(0.014 4.788)">
      <g id="Group_141" data-name="Group 141">
        <path id="Path_108" data-name="Path 108" d="M18.547,127.414l-1.349-.322v-.474a2.529,2.529,0,0,0,1.246-2.178v-1.788a2.531,2.531,0,0,0-2.528-2.528h-.28a2.522,2.522,0,0,0-1.877.837,3.557,3.557,0,0,0-6.8,0,2.522,2.522,0,0,0-1.877-.837h-.28a2.531,2.531,0,0,0-2.528,2.528v1.788a2.529,2.529,0,0,0,1.246,2.178v.474l-1.349.322a2.806,2.806,0,0,0-2.161,2.738v1.217a.4.4,0,0,0,.4.4H3.682a3.815,3.815,0,0,0-.031.486v1.293H1.227a.4.4,0,1,0,0,.808H19.495a.4.4,0,1,0,0-.808H17.07V132.26a3.814,3.814,0,0,0-.031-.488H20.3a.4.4,0,0,0,.4-.4v-1.217A2.806,2.806,0,0,0,18.547,127.414Zm-4.629-4.762a1.721,1.721,0,0,1,1.719-1.719h.28a1.721,1.721,0,0,1,1.719,1.719v.1a3.052,3.052,0,0,1-1.638-.5.4.4,0,0,0-.443,0,3.051,3.051,0,0,1-1.638.5v-.1Zm0,1.459v-.547a3.856,3.856,0,0,0,1.859-.5,3.856,3.856,0,0,0,1.859.5v.876a1.721,1.721,0,0,1-1.719,1.719h-.28a1.721,1.721,0,0,1-1.719-1.719v-.33Zm.775,4.652a3.808,3.808,0,0,0-.51-.161l-1.285-.307a2.007,2.007,0,0,1,.3-.1l1.277-.306Zm-.335-2.143v.469L13,127.413a2.808,2.808,0,0,0-.823.342v-.591a3.583,3.583,0,0,0,1.316-1.38A2.546,2.546,0,0,0,14.358,126.619Zm-1.249-2.509a2.748,2.748,0,0,1-5.5,0v-1.184h.444a5.205,5.205,0,0,0,3.1-1.02l.093.138a1.981,1.981,0,0,0,1.65.881h.206v1.184Zm-5.5-2.1a2.748,2.748,0,0,1,5.5,0v.109H12.9a1.174,1.174,0,0,1-.978-.522l-.149-.223q.182-.184.347-.388a.4.4,0,0,0-.629-.508,4.4,4.4,0,0,1-3.438,1.642H7.612Zm-.389,3.776a3.583,3.583,0,0,0,1.32,1.382v.591a2.809,2.809,0,0,0-.827-.345l-1.354-.324v-.469A2.547,2.547,0,0,0,7.224,125.785Zm.6,2.508-1.283.307a3.81,3.81,0,0,0-.507.16l.223-.867,1.277.306A2,2,0,0,1,7.819,128.293Zm-4.733-5.641a1.721,1.721,0,0,1,1.719-1.719h.28A1.721,1.721,0,0,1,6.8,122.652v.1a3.052,3.052,0,0,1-1.638-.5.4.4,0,0,0-.443,0,3.051,3.051,0,0,1-1.638.5v-.1Zm0,1.788v-.876a3.856,3.856,0,0,0,1.859-.5,3.856,3.856,0,0,0,1.859.5v.876a1.721,1.721,0,0,1-1.719,1.719h-.28A1.721,1.721,0,0,1,3.086,124.44Zm.794,6.524H.822v-.813a2,2,0,0,1,1.54-1.951l1.273-.3.6,2.344A3.74,3.74,0,0,0,3.88,130.964Zm.452-4.041a2.527,2.527,0,0,0,.473.045h.28a2.528,2.528,0,0,0,.47-.045v.433l-.506,1.974c-.059.048-.117.1-.173.148l-.543-2.118Zm.128,6.628v-1.292a2.944,2.944,0,0,1,1.234-2.4l3.7,3.7Zm1.99-4.084c.09-.031.182-.058.275-.081l1.93-.463.949,3.7Zm2.9-1.08v-.866a3.559,3.559,0,0,0,2.021,0v.871l-1.01,3.937Zm2.718.541,1.924.46c.1.023.191.051.284.083l-3.157,3.157Zm4.191,4.623h-4.92l3.69-3.691a2.943,2.943,0,0,1,1.23,2.4Zm.128-6.191h0l-.544,2.12c-.056-.051-.113-.1-.172-.147l-.507-1.976v-.433a2.529,2.529,0,0,0,.47.045h.28a2.527,2.527,0,0,0,.473-.045Zm3.51,3.6H16.841a3.742,3.742,0,0,0-.356-.723l.6-2.345,1.273.3a2,2,0,0,1,1.54,1.951v.813Z" transform="translate(-0.014 -118.452)" fill="#fff"/>
      </g>
    </g>
    <g id="Group_144" data-name="Group 144" transform="translate(9.957)">
      <g id="Group_143" data-name="Group 143">
        <path id="Path_109" data-name="Path 109" d="M246.4,0a.4.4,0,0,0-.4.4v1.73a.4.4,0,1,0,.808,0V.4A.4.4,0,0,0,246.4,0Z" transform="translate(-246)" fill="#fff"/>
      </g>
    </g>
    <g id="Group_146" data-name="Group 146" transform="translate(9.956 3.136)">
      <g id="Group_145" data-name="Group 145">
        <path id="Path_110" data-name="Path 110" d="M246.689,77.7a.4.4,0,1,0,.118.286A.407.407,0,0,0,246.689,77.7Z" transform="translate(-245.999 -77.585)" fill="#fff"/>
      </g>
    </g>
    <g id="Group_148" data-name="Group 148" transform="translate(5.486 1.73)">
      <g id="Group_147" data-name="Group 147">
        <path id="Path_111" data-name="Path 111" d="M137.571,44.429l-1.5-1.5a.4.4,0,0,0-.572.572L137,45a.4.4,0,1,0,.571-.572Z" transform="translate(-135.384 -42.813)" fill="#fff"/>
      </g>
    </g>
    <g id="Group_150" data-name="Group 150" transform="translate(12.899 1.668)">
      <g id="Group_149" data-name="Group 149">
        <path id="Path_112" data-name="Path 112" d="M321.082,41.378a.4.4,0,0,0-.572,0l-1.589,1.589a.4.4,0,0,0,.572.572l1.589-1.589A.4.4,0,0,0,321.082,41.378Z" transform="translate(-318.803 -41.26)" fill="#fff"/>
      </g>
    </g>
  </g>
</svg>
