<svg xmlns="http://www.w3.org/2000/svg" width="20.723" height="15.878" viewBox="0 0 20.723 15.878">
  <g id="supplier_3_" data-name="supplier (3)" transform="translate(0.004 -0.006)">
    <path id="Path_127" data-name="Path 127" d="M5.734,11.077a2.7,2.7,0,0,0,4.888.012,5.8,5.8,0,0,1-.634-.813c-.03-.044-.062-.091-.094-.135a2.725,2.725,0,0,1-3.549-.147c-.029-.025-.057-.052-.084-.079-.067.191-.155.416-.248.629a4.157,4.157,0,0,1-.278.533ZM17.682,9.6v3.627l-1.45-.85-1.46.922V9.6H12.709a.359.359,0,0,0-.357.357V14.9a.358.358,0,0,0,.357.356h7.037A.358.358,0,0,0,20.1,14.9V9.954a.358.358,0,0,0-.356-.357H17.682Zm-2.295,0v2.587l.833-.526.848.5V9.6Zm-2.678-.615h7.038a.971.971,0,0,1,.685.285l0,0a.968.968,0,0,1,.285.685V14.9a.967.967,0,0,1-.285.683l0,0a.973.973,0,0,1-.683.285H15.812l-.032.013H.42c-.6-.118-.909-2.221,1.5-3.565.973-.543,2.467-.722,3.517-1.455A3.37,3.37,0,0,0,5.68,10.4c.12-.277.231-.577.3-.781a9.509,9.509,0,0,1-.787-1.123L4.4,7.458A2.325,2.325,0,0,1,3.944,6.3a.917.917,0,0,1,.078-.415A.779.779,0,0,1,4.3,5.568a.908.908,0,0,1,.194-.1,16.44,16.44,0,0,1-.039-2.047,3.088,3.088,0,0,1,.1-.516c.965-3.433,6.008-3.826,6.718-1.142a3.1,3.1,0,0,1,.781,1.953L12,5.553h0a.575.575,0,0,1,.42.435A1.794,1.794,0,0,1,12.2,7.077h0a.184.184,0,0,1-.013.025l-.909,1.263A7.662,7.662,0,0,1,10.162,9.9c.039.057.079.116.12.172a5.3,5.3,0,0,0,.6.764.076.076,0,0,1,.019.022h0a4.833,4.833,0,0,0,.841.467V9.954a.973.973,0,0,1,.973-.971ZM4.951,5.839a.766.766,0,0,0-.4.1.327.327,0,0,0-.116.133.491.491,0,0,0-.039.214,1.9,1.9,0,0,0,.379.924l0,.005h0l.8,1.035A6.726,6.726,0,0,0,6.646,9.662a2.193,2.193,0,0,0,1.528.615,2.242,2.242,0,0,0,1.617-.642,7.074,7.074,0,0,0,1.1-1.5l.9-1.246a1.438,1.438,0,0,0,.191-.786c-.022-.089-.12-.133-.288-.142-.035,0-.073,0-.11,0s-.083,0-.125.008a.235.235,0,0,1-.069-.005,1.226,1.226,0,0,1-.246-.013l.307-1.128c-2.281.359-3.988-1.335-6.4-.339l.174,1.371a1.592,1.592,0,0,1-.273-.012Z" transform="translate(0 0)" fill="#fff" fill-rule="evenodd"/>
  </g>
</svg>
