<svg xmlns="http://www.w3.org/2000/svg" width="19.362" height="17.354" viewBox="0 0 19.362 17.354">
  <g id="Group_162" data-name="Group 162" transform="translate(2566 -3823)">
    <g id="alert" transform="translate(-2554.939 3826.79)">
      <g id="Group_152" data-name="Group 152" transform="translate(0 0)">
        <g id="Group_151" data-name="Group 151">
          <path id="Path_113" data-name="Path 113" d="M8.169,32.3,5,26.8a.976.976,0,0,0-1.691,0L.132,32.3a.976.976,0,0,0,.845,1.464H7.323A.976.976,0,0,0,8.169,32.3Zm-.421.733a.485.485,0,0,1-.424.245H.977a.49.49,0,0,1-.424-.735l3.173-5.5a.49.49,0,0,1,.848,0l3.173,5.5A.485.485,0,0,1,7.747,33.032Z" transform="translate(0 -26.315)" fill="#fff"/>
        </g>
      </g>
      <g id="Group_154" data-name="Group 154" transform="translate(3.907 2.427)">
        <g id="Group_153" data-name="Group 153">
          <rect id="Rectangle_87" data-name="Rectangle 87" width="0.486" height="2.432" fill="#fff"/>
        </g>
      </g>
      <g id="Group_156" data-name="Group 156" transform="translate(3.826 5.345)">
        <g id="Group_155" data-name="Group 155" transform="translate(0 0)">
          <path id="Path_114" data-name="Path 114" d="M236.326,355.99a.324.324,0,1,0,.324.324A.325.325,0,0,0,236.326,355.99Z" transform="translate(-236.002 -355.99)" fill="#fff"/>
        </g>
      </g>
    </g>
    <g id="construction-worker" transform="translate(-2566 3823)">
      <path id="Path_117" data-name="Path 117" d="M70.423,13.433a1.962,1.962,0,0,0-1.076-1.045l-2.957-1.166a.166.166,0,0,1-.106-.156v-.919a3.958,3.958,0,0,0,1.366-1.854,4.855,4.855,0,0,0,.214-.813,1.216,1.216,0,0,0,1.1-1.6.744.744,0,0,0,.327-.616V5.2a.745.745,0,0,0-.744-.744h-.186V3.891A3.621,3.621,0,0,0,66.467.706.759.759,0,0,0,65.119.283a3.683,3.683,0,0,0-.393-.021h-.553a3.673,3.673,0,0,0-.464.029L63.68.3a.759.759,0,0,0-1.332.459l-.031.015a3.649,3.649,0,0,0-1.774,3.12v.563h-.251a.745.745,0,0,0-.744.744V5.26a.744.744,0,0,0,.346.628,1.218,1.218,0,0,0,1.06,1.59,4.862,4.862,0,0,0,.21.8,3.958,3.958,0,0,0,1.368,1.864v.92a.166.166,0,0,1-.106.156l-2.957,1.166a1.962,1.962,0,0,0-1.076,1.045A8.495,8.495,0,0,0,57.7,16.8a.555.555,0,0,0,.554.554h8.591a.256.256,0,0,0,0-.512H64.493v-.631h.545a.419.419,0,0,0,.419-.419v-.63a.419.419,0,0,0-.419-.419h-.545v-.722h1.2a1,1,0,0,0,1-1V11.893l.442.174v1.32a1.561,1.561,0,0,0,.429,1.077l.387.409a.556.556,0,0,1,.153.384v1.584h-.238a.256.256,0,0,0,0,.512H70.56a.555.555,0,0,0,.554-.554A8.494,8.494,0,0,0,70.423,13.433Zm-7.38-2.961a2.99,2.99,0,0,0,2.728,0v.579l-.013.015-.139.175a1.547,1.547,0,0,1-2.424,0l-.141-.178-.011-.012ZM67.93,6.959A6.967,6.967,0,0,0,67.941,6h.521a.7.7,0,0,1,.05.26.706.706,0,0,1-.581.694Zm-.086-3.068v.563H66.469V1.306A3.109,3.109,0,0,1,67.844,3.891Zm-2.382.563V.794a.248.248,0,1,1,.5,0v3.66ZM64.173.774h.553c.075,0,.149,0,.224.008V4.454H63.867V.794s0,0,0-.005C63.968.779,64.071.774,64.173.774ZM61.055,3.891a3.136,3.136,0,0,1,1.292-2.527V2.452a.256.256,0,0,0,.512,0V.794a.248.248,0,0,1,.5,0v3.66h-.5V3.476a.256.256,0,0,0-.512,0v.978H61.055Zm-1,1.307a.233.233,0,0,1,.232-.232h8.25a.233.233,0,0,1,.232.232V5.26a.233.233,0,0,1-.232.232h-8.25a.233.233,0,0,1-.232-.232Zm.286,1.067A.7.7,0,0,1,60.4,6h.479a6.971,6.971,0,0,0,.01.945A.706.706,0,0,1,60.346,6.265ZM61.389,6h6.039a3.98,3.98,0,0,1-1.7,3.9,2.475,2.475,0,0,1-2.639,0A3.979,3.979,0,0,1,61.389,6ZM58.212,16.8a7.985,7.985,0,0,1,.65-3.165,1.446,1.446,0,0,1,.794-.771l1.51-.6v1.119a1.051,1.051,0,0,1-.289.725l-.387.409a1.066,1.066,0,0,0-.293.736v1.584H58.254A.042.042,0,0,1,58.212,16.8Zm6.732-1.1H62.977v-.442h1.968Zm-2.061-.955a.419.419,0,0,0-.419.419v.63a.419.419,0,0,0,.419.419h1.1v.631H60.709V15.258a.556.556,0,0,1,.153-.384l.387-.409a1.561,1.561,0,0,0,.429-1.077s0-1.315,0-1.321l.443-.175v1.129a1,1,0,0,0,1,1h.861v.722ZM65.7,13.511H63.121a.489.489,0,0,1-.489-.489V11.69a.682.682,0,0,0,.178-.111,2.058,2.058,0,0,0,3.195,0,.683.683,0,0,0,.179.112v1.332A.489.489,0,0,1,65.7,13.511Zm4.865,3.331H68.62V15.258a1.066,1.066,0,0,0-.293-.736l-.387-.409a1.051,1.051,0,0,1-.289-.725V12.27l1.508.595a1.447,1.447,0,0,1,.794.771A7.986,7.986,0,0,1,70.6,16.8a.042.042,0,0,1-.042.042Z" transform="translate(-57.7 0)" fill="#fff"/>
    </g>
  </g>
</svg>
